<svg id="svg" version="1.1" xmlns="http://www.w3.org/2000/svg" xmlns:xlink="http://www.w3.org/1999/xlink" width="400" height="400" viewBox="0, 0, 400,400"><g id="svgg"><path id="path0" d="M193.070 0.561 C 192.823 1.205,189.551 1.996,187.080 2.009 C 186.156 2.014,184.680 2.344,183.800 2.743 C 182.920 3.142,181.480 3.584,180.600 3.724 C 179.720 3.865,178.287 4.345,177.415 4.790 C 176.544 5.236,175.441 5.600,174.964 5.600 C 174.488 5.600,173.878 5.865,173.609 6.189 C 173.340 6.514,172.520 6.891,171.788 7.029 C 171.055 7.166,170.365 7.514,170.255 7.802 C 170.144 8.089,169.514 8.443,168.855 8.588 C 168.195 8.733,167.432 9.120,167.159 9.449 C 166.887 9.777,166.109 10.311,165.432 10.634 C 163.655 11.481,162.700 12.092,161.733 13.000 C 161.264 13.440,160.226 14.250,159.426 14.800 C 158.189 15.651,156.646 16.934,154.305 19.058 C 153.655 19.648,149.588 24.169,148.014 26.053 C 147.346 26.852,146.800 27.707,146.800 27.953 C 146.800 28.199,146.650 28.400,146.467 28.400 C 146.084 28.400,143.600 32.120,143.600 32.694 C 143.600 32.904,143.240 33.402,142.800 33.800 C 142.360 34.198,142.000 34.843,142.000 35.233 C 142.000 35.624,141.763 36.181,141.473 36.471 C 141.183 36.762,140.731 37.618,140.468 38.374 C 140.205 39.130,139.747 40.030,139.449 40.374 C 139.152 40.718,138.802 41.697,138.671 42.550 C 138.541 43.402,138.182 44.392,137.874 44.750 C 137.566 45.107,137.127 46.300,136.899 47.400 C 136.670 48.500,136.293 49.940,136.059 50.600 C 134.486 55.047,134.288 58.720,134.041 87.915 C 133.832 112.648,133.720 116.480,133.200 116.809 C 132.835 117.039,119.813 117.190,99.932 117.194 L 67.264 117.200 67.027 119.900 C 66.897 121.385,66.606 123.590,66.381 124.800 C 66.156 126.010,65.798 129.250,65.585 132.000 C 65.373 134.750,64.936 138.170,64.614 139.600 C 64.292 141.030,63.853 144.817,63.637 148.015 C 63.422 151.213,63.042 154.363,62.794 155.015 C 62.546 155.667,62.182 158.737,61.985 161.839 C 61.788 164.940,61.435 167.982,61.200 168.600 C 60.965 169.218,60.606 172.260,60.402 175.361 C 60.198 178.463,59.833 181.630,59.592 182.400 C 59.350 183.170,58.982 186.410,58.772 189.600 C 58.563 192.790,58.142 196.300,57.837 197.400 C 57.532 198.500,57.170 201.470,57.032 204.000 C 56.895 206.530,56.526 209.860,56.213 211.400 C 55.900 212.940,55.461 216.555,55.237 219.433 C 55.014 222.311,54.656 225.126,54.442 225.689 C 54.228 226.251,53.936 228.937,53.793 231.656 C 53.650 234.375,53.268 237.680,52.943 239.000 C 52.619 240.320,52.190 243.937,51.990 247.039 C 51.790 250.140,51.435 253.182,51.200 253.800 C 50.965 254.418,50.606 257.460,50.402 260.561 C 50.198 263.663,49.833 266.830,49.592 267.600 C 49.350 268.370,48.982 271.610,48.772 274.800 C 48.563 277.990,48.142 281.500,47.837 282.600 C 47.532 283.700,47.170 286.670,47.032 289.200 C 46.895 291.730,46.526 295.060,46.213 296.600 C 45.900 298.140,45.461 301.755,45.237 304.633 C 45.014 307.511,44.649 310.344,44.427 310.929 C 44.205 311.513,43.912 314.199,43.776 316.896 C 43.641 319.593,43.265 322.880,42.942 324.200 C 42.618 325.520,42.190 329.137,41.990 332.239 C 41.790 335.340,41.435 338.382,41.200 339.000 C 40.965 339.618,40.606 342.660,40.402 345.761 C 40.198 348.863,39.833 352.030,39.592 352.800 C 39.350 353.570,38.977 356.867,38.762 360.127 C 38.548 363.387,38.127 366.807,37.828 367.727 C 37.529 368.647,37.171 371.470,37.034 374.000 C 36.896 376.530,36.530 379.950,36.220 381.600 C 35.910 383.250,35.470 386.955,35.244 389.833 C 35.017 392.711,34.644 395.558,34.416 396.159 C 34.187 396.760,34.000 397.870,34.000 398.626 L 34.000 400.000 200.190 400.000 L 366.380 400.000 366.159 398.700 C 366.037 397.985,365.698 396.320,365.405 395.000 C 365.112 393.680,364.758 390.467,364.618 387.859 C 364.477 385.252,364.117 382.102,363.816 380.859 C 363.516 379.617,363.158 376.371,363.021 373.647 C 362.884 370.923,362.582 368.340,362.350 367.907 C 362.119 367.474,361.758 364.663,361.549 361.660 C 361.341 358.657,360.901 354.935,360.572 353.390 C 360.243 351.844,359.811 348.151,359.612 345.182 C 359.413 342.213,359.056 339.274,358.820 338.651 C 358.583 338.028,358.283 335.332,358.153 332.659 C 358.023 329.987,357.653 326.736,357.331 325.436 C 357.009 324.136,356.588 320.626,356.396 317.636 C 356.204 314.646,355.782 311.120,355.458 309.800 C 355.134 308.480,354.755 305.267,354.616 302.659 C 354.476 300.052,354.117 296.902,353.816 295.659 C 353.516 294.417,353.158 291.171,353.021 288.447 C 352.884 285.723,352.582 283.140,352.350 282.707 C 352.119 282.274,351.758 279.463,351.549 276.460 C 351.341 273.457,350.900 269.732,350.570 268.182 C 350.240 266.632,349.807 263.032,349.607 260.182 C 349.407 257.332,349.052 254.370,348.817 253.600 C 348.582 252.830,348.287 250.040,348.160 247.400 C 348.033 244.760,347.672 241.658,347.356 240.507 C 347.040 239.356,346.616 235.846,346.414 232.707 C 346.212 229.568,345.781 225.920,345.457 224.600 C 345.132 223.280,344.749 219.959,344.605 217.220 C 344.460 214.481,344.167 211.911,343.952 211.510 C 343.737 211.109,343.384 208.040,343.167 204.690 C 342.951 201.341,342.582 198.150,342.348 197.600 C 342.114 197.050,341.750 194.170,341.540 191.200 C 341.329 188.230,340.888 184.540,340.560 183.000 C 340.232 181.460,339.802 177.860,339.604 175.000 C 339.406 172.140,339.052 169.170,338.817 168.400 C 338.582 167.630,338.287 164.840,338.160 162.200 C 338.033 159.560,337.664 156.432,337.339 155.249 C 337.014 154.065,336.584 150.507,336.383 147.342 C 336.182 144.176,335.759 140.644,335.443 139.493 C 335.126 138.342,334.752 135.074,334.610 132.230 C 334.469 129.387,334.171 126.719,333.947 126.301 C 333.723 125.883,333.419 123.709,333.270 121.471 L 333.000 117.400 299.800 117.194 C 281.540 117.081,266.568 116.946,266.528 116.894 C 266.489 116.842,266.393 104.065,266.316 88.500 C 266.206 66.447,266.060 59.935,265.656 59.000 C 265.370 58.340,264.970 56.197,264.765 54.237 C 264.561 52.277,264.213 50.457,263.993 50.192 C 263.773 49.927,263.401 48.668,263.165 47.395 C 262.930 46.122,262.503 44.846,262.217 44.560 C 261.931 44.273,261.569 43.361,261.414 42.533 C 261.258 41.705,260.787 40.543,260.366 39.952 C 259.945 39.360,259.600 38.573,259.600 38.201 C 259.600 37.830,259.240 37.069,258.800 36.509 C 258.360 35.950,258.000 35.176,258.000 34.789 C 258.000 34.402,257.727 33.981,257.394 33.853 C 257.061 33.725,256.619 33.176,256.412 32.632 C 256.041 31.656,253.966 28.535,252.136 26.200 C 246.763 19.345,239.671 13.064,234.549 10.626 C 233.860 10.298,233.191 9.753,233.061 9.415 C 232.931 9.077,232.484 8.800,232.066 8.800 C 231.649 8.800,230.879 8.467,230.354 8.061 C 229.829 7.655,228.860 7.191,228.200 7.030 C 227.540 6.869,226.730 6.506,226.400 6.223 C 226.070 5.939,225.266 5.580,224.614 5.424 C 223.962 5.269,222.666 4.795,221.736 4.371 C 220.805 3.947,219.629 3.599,219.122 3.598 C 218.615 3.596,217.660 3.312,217.000 2.966 C 216.340 2.620,214.246 2.174,212.348 1.976 C 208.648 1.591,206.800 1.069,206.800 0.410 C 206.800 -0.283,193.337 -0.135,193.070 0.561 M211.080 17.301 C 211.784 17.685,212.871 18.000,213.496 18.000 C 214.120 18.000,215.297 18.340,216.111 18.755 C 216.925 19.170,218.205 19.625,218.955 19.765 C 219.706 19.906,220.530 20.275,220.787 20.585 C 221.045 20.895,221.770 21.262,222.400 21.400 C 223.030 21.538,223.759 21.910,224.021 22.226 C 224.283 22.542,224.701 22.803,224.949 22.807 C 225.378 22.814,227.954 24.439,229.210 25.496 C 229.535 25.769,230.964 26.939,232.386 28.096 C 233.808 29.253,235.428 30.688,235.986 31.285 C 237.794 33.219,240.191 36.078,240.565 36.747 C 240.765 37.106,241.170 37.544,241.465 37.720 C 241.759 37.896,242.000 38.230,242.000 38.462 C 242.000 38.694,242.450 39.419,243.000 40.073 C 243.550 40.727,244.000 41.496,244.000 41.782 C 244.000 42.068,244.258 42.517,244.574 42.779 C 244.890 43.041,245.262 43.770,245.400 44.400 C 245.538 45.030,245.891 45.744,246.184 45.987 C 246.477 46.230,246.827 47.017,246.962 47.737 C 247.097 48.456,247.566 49.748,248.004 50.607 C 248.442 51.466,248.800 52.632,248.800 53.198 C 248.800 53.765,249.160 55.252,249.600 56.504 C 250.712 59.667,250.869 116.534,249.767 116.957 C 248.452 117.462,150.589 117.229,150.080 116.720 C 149.269 115.909,149.403 60.464,150.224 57.587 C 150.567 56.384,151.038 54.410,151.270 53.200 C 151.503 51.990,151.927 50.730,152.213 50.400 C 152.499 50.070,152.859 49.116,153.014 48.280 C 153.169 47.445,153.523 46.534,153.799 46.258 C 154.076 45.981,154.428 45.181,154.582 44.480 C 154.737 43.778,155.077 43.069,155.340 42.902 C 155.602 42.736,156.041 42.091,156.314 41.469 C 156.847 40.256,161.214 34.335,162.575 32.978 C 163.029 32.527,163.878 31.627,164.462 30.978 C 165.505 29.822,166.214 29.205,168.806 27.200 C 169.516 26.650,170.552 25.795,171.107 25.300 C 171.663 24.805,172.341 24.400,172.616 24.400 C 172.890 24.400,173.212 24.147,173.330 23.838 C 173.449 23.528,174.083 23.157,174.740 23.013 C 175.396 22.869,176.033 22.492,176.154 22.176 C 176.276 21.859,176.624 21.600,176.928 21.600 C 177.232 21.600,178.327 21.150,179.362 20.600 C 180.396 20.050,181.553 19.600,181.932 19.600 C 182.312 19.600,183.031 19.313,183.532 18.963 C 184.032 18.612,185.377 18.178,186.521 17.999 C 187.664 17.819,189.320 17.386,190.200 17.037 C 192.621 16.076,209.222 16.286,211.080 17.301 M133.586 150.374 C 133.847 150.861,134.000 155.900,134.000 163.982 L 134.000 176.816 134.957 178.308 C 136.225 180.285,137.507 181.600,138.167 181.600 C 138.461 181.600,138.926 181.870,139.200 182.200 C 140.299 183.524,144.572 182.592,146.904 180.519 C 149.369 178.329,149.592 176.896,149.596 163.180 C 149.599 153.902,149.727 150.433,150.080 150.080 C 150.627 149.533,249.018 149.370,249.875 149.914 C 250.220 150.134,250.388 153.802,250.493 163.408 C 250.634 176.306,250.658 176.638,251.563 178.306 C 252.515 180.059,254.125 181.600,255.005 181.600 C 255.278 181.600,255.726 181.870,256.000 182.200 C 256.580 182.899,260.010 183.030,260.662 182.378 C 260.894 182.146,261.687 181.651,262.424 181.278 C 263.202 180.885,264.275 179.761,264.982 178.600 L 266.200 176.600 266.400 163.200 L 266.600 149.800 285.088 149.696 L 303.576 149.592 304.216 150.569 C 304.656 151.239,304.980 153.217,305.250 156.873 C 305.467 159.803,305.893 163.370,306.198 164.800 C 306.502 166.230,306.870 169.560,307.015 172.200 C 307.161 174.840,307.530 177.900,307.836 179.000 C 308.141 180.100,308.557 183.610,308.759 186.800 C 308.961 189.990,309.337 193.140,309.594 193.800 C 309.852 194.460,310.220 197.520,310.413 200.600 C 310.606 203.680,310.956 206.830,311.191 207.600 C 311.425 208.370,311.780 211.520,311.980 214.600 C 312.179 217.680,312.547 220.737,312.797 221.393 C 313.046 222.049,313.421 225.199,313.629 228.393 C 313.837 231.587,314.266 235.280,314.583 236.600 C 314.900 237.920,315.271 240.980,315.407 243.400 C 315.543 245.820,315.903 248.880,316.206 250.200 C 316.510 251.520,316.875 254.760,317.019 257.400 C 317.163 260.040,317.529 263.100,317.832 264.200 C 318.136 265.300,318.557 268.813,318.767 272.007 C 318.977 275.201,319.355 278.351,319.606 279.007 C 319.857 279.663,320.220 282.720,320.413 285.800 C 320.606 288.880,320.956 292.030,321.191 292.800 C 321.425 293.570,321.780 296.720,321.980 299.800 C 322.179 302.880,322.546 305.933,322.794 306.585 C 323.042 307.237,323.420 310.387,323.634 313.585 C 323.848 316.783,324.281 320.480,324.596 321.800 C 324.910 323.120,325.278 326.090,325.412 328.400 C 325.547 330.710,325.902 333.770,326.202 335.200 C 326.501 336.630,326.866 339.960,327.012 342.600 C 327.157 345.240,327.531 348.292,327.841 349.383 C 328.152 350.473,328.513 353.443,328.644 355.983 C 328.775 358.522,329.142 361.770,329.459 363.200 C 330.021 365.729,330.013 365.819,329.172 366.502 C 328.028 367.430,71.819 367.412,70.701 366.484 C 70.157 366.032,70.144 365.681,70.596 363.684 C 70.881 362.428,71.241 359.150,71.397 356.400 C 71.553 353.650,71.919 350.680,72.210 349.800 C 72.502 348.920,72.923 345.496,73.145 342.192 C 73.368 338.887,73.736 335.694,73.964 335.096 C 74.191 334.498,74.490 331.801,74.629 329.104 C 74.768 326.407,75.138 323.210,75.452 322.000 C 75.766 320.790,76.189 317.179,76.393 313.975 C 76.596 310.771,76.967 307.621,77.217 306.975 C 77.466 306.329,77.838 303.320,78.042 300.290 C 78.247 297.259,78.678 293.659,79.001 292.290 C 79.324 290.920,79.598 288.450,79.610 286.800 C 79.622 285.150,79.894 282.450,80.214 280.800 C 80.534 279.150,81.045 274.920,81.349 271.400 C 81.654 267.880,82.099 264.550,82.338 264.000 C 82.577 263.450,82.948 260.296,83.162 256.992 C 83.375 253.687,83.736 250.494,83.964 249.896 C 84.191 249.298,84.488 246.601,84.623 243.904 C 84.758 241.207,85.137 238.024,85.465 236.832 C 85.794 235.639,86.220 232.028,86.412 228.807 C 86.605 225.585,86.967 222.421,87.217 221.775 C 87.466 221.129,87.840 218.080,88.046 215.000 C 88.253 211.920,88.606 208.770,88.830 208.000 C 89.055 207.230,89.402 204.260,89.601 201.400 C 89.800 198.540,90.232 194.940,90.560 193.400 C 90.888 191.860,91.331 188.143,91.543 185.140 C 91.755 182.137,92.110 179.342,92.331 178.930 C 92.551 178.517,92.914 175.394,93.138 171.990 C 93.361 168.585,93.731 165.307,93.960 164.704 C 94.189 164.101,94.490 161.401,94.628 158.704 C 94.906 153.282,95.311 151.146,96.239 150.218 C 97.307 149.150,133.011 149.299,133.586 150.374 " stroke="none" fill="#050505" fill-rule="evenodd"></path><path id="path1" d="M0.000 200.000 L 0.000 400.000 16.363 400.000 L 32.725 400.000 32.975 396.100 C 33.113 393.955,33.483 391.120,33.797 389.800 C 34.112 388.480,34.490 385.060,34.638 382.200 C 34.786 379.340,35.156 376.295,35.459 375.433 C 35.763 374.571,36.176 371.118,36.377 367.760 C 36.579 364.401,36.959 361.251,37.222 360.758 C 37.486 360.266,37.845 357.329,38.020 354.231 C 38.196 351.134,38.623 347.527,38.970 346.216 C 39.316 344.905,39.604 342.295,39.608 340.416 C 39.613 338.537,39.892 335.830,40.228 334.400 C 40.564 332.970,41.008 329.190,41.216 326.000 C 41.423 322.810,41.849 319.480,42.163 318.600 C 42.478 317.720,42.857 314.570,43.008 311.600 C 43.158 308.630,43.514 305.480,43.800 304.600 C 44.086 303.720,44.437 300.660,44.579 297.800 C 44.722 294.940,45.107 291.646,45.436 290.480 C 45.765 289.315,46.189 285.805,46.378 282.680 C 46.568 279.556,46.938 276.460,47.202 275.800 C 47.466 275.140,47.830 272.080,48.011 269.000 C 48.191 265.920,48.623 262.327,48.970 261.016 C 49.316 259.705,49.604 257.095,49.608 255.216 C 49.613 253.337,49.892 250.630,50.228 249.200 C 50.564 247.770,51.008 243.990,51.216 240.800 C 51.423 237.610,51.851 234.280,52.167 233.400 C 52.483 232.520,52.865 229.370,53.016 226.400 C 53.166 223.430,53.522 220.280,53.806 219.400 C 54.090 218.520,54.448 215.370,54.602 212.400 C 54.755 209.430,55.142 206.228,55.461 205.285 C 55.781 204.341,56.194 200.921,56.381 197.685 C 56.567 194.448,56.940 191.260,57.211 190.600 C 57.482 189.940,57.845 186.880,58.018 183.800 C 58.191 180.720,58.618 177.127,58.966 175.816 C 59.315 174.505,59.604 171.895,59.608 170.016 C 59.613 168.137,59.892 165.430,60.228 164.000 C 60.564 162.570,61.008 158.790,61.216 155.600 C 61.423 152.410,61.851 149.080,62.167 148.200 C 62.483 147.320,62.865 144.170,63.016 141.200 C 63.166 138.230,63.522 135.080,63.806 134.200 C 64.090 133.320,64.448 130.170,64.602 127.200 C 64.755 124.230,65.113 121.080,65.396 120.200 C 65.680 119.320,66.025 118.105,66.164 117.500 L 66.415 116.400 99.583 116.400 L 132.750 116.400 132.875 86.100 C 132.988 58.801,133.066 55.661,133.667 54.400 C 134.034 53.630,134.456 51.933,134.605 50.628 C 134.754 49.324,135.219 47.616,135.638 46.834 C 136.057 46.052,136.404 44.959,136.409 44.406 C 136.414 43.853,136.770 42.950,137.200 42.400 C 137.630 41.850,137.986 41.019,137.991 40.554 C 137.996 40.089,138.360 39.250,138.800 38.691 C 139.240 38.131,139.600 37.331,139.600 36.912 C 139.600 36.494,139.960 35.764,140.400 35.292 C 140.840 34.820,141.200 34.190,141.200 33.892 C 141.200 33.594,141.560 32.964,142.000 32.492 C 142.440 32.020,142.803 31.491,142.806 31.317 C 142.809 31.143,143.445 30.100,144.217 29.000 C 144.990 27.900,145.932 26.550,146.311 26.000 C 146.690 25.450,147.585 24.409,148.300 23.687 C 149.015 22.964,149.600 22.269,149.600 22.142 C 149.600 21.686,156.690 14.975,158.413 13.800 C 159.381 13.140,160.494 12.285,160.887 11.900 C 161.279 11.515,161.851 11.200,162.157 11.200 C 162.464 11.200,162.816 10.936,162.940 10.613 C 163.064 10.290,163.781 9.768,164.534 9.453 C 165.286 9.139,166.025 8.683,166.175 8.441 C 166.325 8.198,166.757 8.000,167.135 8.000 C 167.513 8.000,168.130 7.640,168.507 7.200 C 168.884 6.760,169.530 6.400,169.942 6.400 C 170.355 6.400,171.152 6.038,171.714 5.596 C 172.275 5.155,173.335 4.680,174.068 4.542 C 174.800 4.403,175.675 4.053,176.010 3.764 C 176.346 3.475,177.424 3.110,178.405 2.953 C 179.387 2.796,180.419 2.438,180.700 2.157 C 181.152 1.705,182.261 1.465,185.569 1.105 C 186.101 1.047,186.611 0.775,186.702 0.500 C 186.833 0.101,168.001 0.000,93.433 0.000 L 0.000 0.000 0.000 200.000 M213.299 0.500 C 213.394 0.785,214.542 1.120,215.973 1.280 C 217.352 1.434,218.867 1.812,219.340 2.120 C 219.813 2.428,220.920 2.812,221.800 2.973 C 222.680 3.135,223.670 3.498,224.000 3.779 C 224.330 4.060,225.200 4.403,225.932 4.542 C 226.665 4.680,227.725 5.155,228.286 5.596 C 228.848 6.038,229.619 6.400,230.000 6.400 C 230.381 6.400,231.123 6.715,231.649 7.100 C 232.699 7.868,234.030 8.659,235.658 9.482 C 236.240 9.776,236.937 10.283,237.207 10.608 C 237.477 10.934,237.875 11.200,238.091 11.200 C 238.308 11.200,239.050 11.648,239.742 12.196 C 240.434 12.745,241.422 13.510,241.938 13.896 C 243.630 15.165,252.000 23.573,252.000 24.004 C 252.000 24.236,252.262 24.526,252.582 24.648 C 252.901 24.771,253.576 25.519,254.082 26.311 C 255.070 27.860,255.066 27.854,257.304 31.308 C 258.127 32.577,258.800 33.719,258.800 33.845 C 258.800 33.971,259.160 34.531,259.600 35.091 C 260.040 35.650,260.400 36.419,260.400 36.800 C 260.400 37.181,260.760 37.950,261.200 38.509 C 261.640 39.069,262.001 39.858,262.001 40.263 C 262.002 40.668,262.352 41.572,262.778 42.271 C 263.204 42.970,263.681 44.230,263.837 45.071 C 263.993 45.912,264.375 46.991,264.686 47.469 C 264.997 47.947,265.355 49.387,265.481 50.669 C 265.607 51.951,266.001 53.540,266.355 54.200 C 266.927 55.264,267.023 58.852,267.200 85.800 L 267.400 116.200 300.584 116.400 L 333.767 116.600 334.058 117.800 C 334.218 118.460,334.541 119.720,334.777 120.600 C 335.013 121.480,335.313 124.360,335.444 127.000 C 335.575 129.640,335.939 132.700,336.252 133.800 C 336.565 134.900,336.922 138.050,337.044 140.800 C 337.167 143.550,337.534 146.610,337.860 147.600 C 338.187 148.590,338.542 151.560,338.650 154.200 C 338.758 156.840,339.185 160.530,339.599 162.400 C 340.013 164.270,340.443 168.000,340.555 170.688 C 340.668 173.377,340.961 175.954,341.208 176.415 C 341.455 176.877,341.816 179.908,342.010 183.152 C 342.204 186.396,342.574 189.579,342.831 190.225 C 343.088 190.871,343.529 194.280,343.809 197.800 C 344.090 201.320,344.519 204.920,344.763 205.800 C 345.007 206.680,345.313 209.560,345.444 212.200 C 345.575 214.840,345.939 217.900,346.252 219.000 C 346.565 220.100,346.923 223.250,347.046 226.000 C 347.170 228.750,347.541 231.858,347.870 232.906 C 348.199 233.954,348.623 237.374,348.813 240.506 C 349.002 243.638,349.419 247.190,349.738 248.400 C 350.058 249.610,350.416 252.885,350.534 255.679 C 350.652 258.472,350.953 261.139,351.203 261.606 C 351.453 262.072,351.816 265.108,352.010 268.352 C 352.204 271.596,352.574 274.779,352.831 275.425 C 353.088 276.071,353.537 279.480,353.829 283.000 C 354.121 286.520,354.631 290.750,354.964 292.400 C 355.296 294.050,355.577 296.930,355.588 298.800 C 355.600 300.670,355.882 303.100,356.217 304.200 C 356.551 305.300,356.925 308.450,357.048 311.200 C 357.171 313.950,357.541 317.058,357.870 318.106 C 358.199 319.154,358.614 322.574,358.793 325.706 C 358.972 328.838,359.334 331.940,359.598 332.600 C 359.861 333.260,360.237 336.436,360.433 339.658 C 360.628 342.881,360.988 346.031,361.233 346.658 C 361.477 347.286,361.840 350.475,362.038 353.744 C 362.236 357.014,362.651 360.434,362.959 361.344 C 363.267 362.255,363.645 365.430,363.798 368.400 C 363.952 371.370,364.334 374.585,364.649 375.545 C 364.964 376.505,365.325 379.565,365.452 382.345 C 365.579 385.125,365.933 388.283,366.238 389.361 C 366.543 390.440,366.912 393.275,367.057 395.661 L 367.320 400.000 383.660 400.000 L 400.000 400.000 400.000 200.000 L 400.000 0.000 306.567 0.000 C 231.998 0.000,213.167 0.101,213.299 0.500 M194.221 17.835 C 193.352 18.153,191.254 18.568,189.558 18.758 C 187.862 18.948,186.057 19.395,185.548 19.751 C 185.039 20.108,184.167 20.401,183.611 20.403 C 183.055 20.404,182.060 20.763,181.400 21.200 C 180.740 21.637,179.909 21.996,179.554 21.997 C 179.199 21.999,178.479 22.335,177.954 22.745 C 177.429 23.155,176.564 23.627,176.031 23.794 C 175.498 23.961,174.699 24.436,174.255 24.849 C 173.812 25.262,173.253 25.600,173.013 25.600 C 172.774 25.600,172.287 25.915,171.932 26.300 C 171.101 27.201,167.676 30.101,166.938 30.528 C 166.091 31.018,163.956 33.312,162.623 35.165 C 161.976 36.064,161.297 36.800,161.113 36.800 C 160.930 36.800,160.609 37.250,160.400 37.800 C 160.191 38.350,159.838 38.800,159.615 38.800 C 159.393 38.800,158.937 39.385,158.603 40.100 C 158.268 40.815,157.554 42.120,157.016 43.000 C 156.478 43.880,155.930 44.870,155.798 45.200 C 155.666 45.530,155.209 46.520,154.783 47.400 C 154.357 48.280,153.892 49.630,153.749 50.400 C 153.607 51.170,153.236 52.094,152.925 52.453 C 152.614 52.813,152.202 54.643,152.007 56.529 C 151.813 58.411,151.418 60.367,151.130 60.876 C 150.711 61.613,150.605 67.303,150.603 89.000 L 150.600 116.200 200.000 116.200 L 249.400 116.200 249.400 89.000 C 249.400 67.892,249.286 61.530,248.891 60.596 C 248.612 59.934,248.226 57.996,248.035 56.290 C 247.843 54.583,247.464 52.918,247.191 52.589 C 246.918 52.261,246.538 51.152,246.347 50.126 C 246.155 49.100,245.743 47.977,245.430 47.630 C 245.118 47.284,244.731 46.460,244.570 45.800 C 244.409 45.140,243.945 44.171,243.539 43.646 C 243.133 43.121,242.800 42.446,242.800 42.146 C 242.800 41.846,242.611 41.600,242.380 41.600 C 242.148 41.600,241.708 41.015,241.401 40.300 C 241.094 39.585,240.217 38.307,239.452 37.461 C 238.686 36.614,237.641 35.367,237.130 34.688 C 235.731 32.831,234.133 31.253,232.063 29.685 C 231.038 28.908,229.575 27.671,228.812 26.936 C 228.048 26.201,227.252 25.600,227.043 25.600 C 226.834 25.600,226.373 25.337,226.018 25.016 C 225.102 24.187,220.924 22.000,220.257 22.000 C 219.949 22.000,219.478 21.735,219.209 21.411 C 218.940 21.086,218.063 20.715,217.260 20.585 C 216.457 20.456,215.080 20.022,214.200 19.622 C 213.320 19.221,211.430 18.792,210.000 18.668 C 208.570 18.544,206.612 18.163,205.650 17.821 C 203.381 17.016,196.434 17.024,194.221 17.835 M97.417 150.772 C 97.291 150.976,97.019 152.461,96.812 154.072 C 96.606 155.682,96.263 157.540,96.051 158.200 C 95.839 158.860,95.569 161.560,95.450 164.200 C 95.331 166.840,94.971 169.900,94.650 171.000 C 94.329 172.100,93.941 175.430,93.788 178.400 C 93.635 181.370,93.255 184.562,92.942 185.494 C 92.629 186.425,92.212 189.878,92.015 193.167 C 91.818 196.455,91.458 199.517,91.216 199.971 C 90.973 200.425,90.664 203.182,90.529 206.098 C 90.394 209.014,90.034 212.210,89.729 213.200 C 89.424 214.190,89.002 217.738,88.790 221.085 C 88.579 224.432,88.150 227.852,87.837 228.685 C 87.515 229.542,87.168 232.468,87.037 235.419 C 86.909 238.289,86.552 241.529,86.244 242.619 C 85.935 243.708,85.583 246.760,85.462 249.400 C 85.342 252.040,84.976 255.100,84.650 256.200 C 84.324 257.300,83.886 260.917,83.677 264.237 C 83.467 267.557,83.093 270.652,82.846 271.115 C 82.598 271.577,82.234 274.620,82.037 277.878 C 81.839 281.135,81.474 284.323,81.224 284.963 C 80.975 285.603,80.620 288.753,80.435 291.963 C 80.250 295.173,79.878 298.340,79.609 299.000 C 79.340 299.660,78.962 302.930,78.770 306.267 C 78.572 309.692,78.169 313.002,77.844 313.867 C 77.512 314.752,77.175 317.599,77.047 320.600 C 76.926 323.460,76.569 326.700,76.254 327.800 C 75.940 328.900,75.580 331.960,75.454 334.600 C 75.329 337.240,75.024 340.030,74.777 340.800 C 74.530 341.570,74.093 345.190,73.807 348.845 C 73.521 352.499,73.075 355.886,72.816 356.370 C 72.550 356.866,72.313 359.201,72.273 361.725 L 72.200 366.200 200.000 366.200 L 327.800 366.200 327.781 361.600 C 327.769 358.658,327.579 356.666,327.253 356.073 C 326.961 355.542,326.587 352.531,326.376 349.010 C 326.173 345.635,325.799 342.362,325.544 341.737 C 325.289 341.112,324.856 337.810,324.581 334.400 C 324.307 330.990,323.897 327.499,323.671 326.642 C 323.444 325.786,323.133 322.636,322.979 319.642 C 322.826 316.649,322.541 313.999,322.346 313.754 C 321.849 313.128,321.227 307.978,321.212 304.364 C 321.206 302.694,320.923 300.444,320.584 299.364 C 320.245 298.284,319.813 294.880,319.625 291.800 C 319.436 288.720,319.077 285.677,318.827 285.037 C 318.577 284.397,318.220 281.247,318.035 278.037 C 317.850 274.827,317.479 271.660,317.210 271.000 C 316.942 270.340,316.560 267.125,316.362 263.856 C 316.164 260.586,315.749 257.166,315.441 256.256 C 315.133 255.345,314.755 252.170,314.602 249.200 C 314.448 246.230,314.090 243.080,313.806 242.200 C 313.522 241.320,313.162 238.170,313.007 235.200 C 312.851 232.230,312.467 228.990,312.153 228.000 C 311.840 227.010,311.416 223.680,311.211 220.600 C 311.006 217.520,310.564 213.830,310.228 212.400 C 309.892 210.970,309.613 208.263,309.608 206.384 C 309.604 204.505,309.316 201.895,308.970 200.584 C 308.623 199.273,308.191 195.680,308.011 192.600 C 307.830 189.520,307.466 186.460,307.202 185.800 C 306.939 185.140,306.560 181.925,306.362 178.656 C 306.164 175.386,305.748 171.965,305.438 171.052 C 305.128 170.139,304.745 166.873,304.587 163.796 C 304.428 160.718,304.117 157.852,303.896 157.426 C 303.674 157.000,303.381 155.290,303.246 153.626 L 303.000 150.600 285.200 150.600 L 267.400 150.600 267.200 164.400 C 267.003 178.016,266.988 178.220,266.062 179.697 C 262.571 185.271,254.229 185.271,250.738 179.697 C 249.812 178.220,249.797 178.016,249.600 164.400 L 249.400 150.600 200.000 150.600 L 150.600 150.600 150.495 164.290 L 150.390 177.980 149.403 179.490 C 145.517 185.436,138.173 185.585,134.121 179.800 L 133.000 178.200 132.881 164.300 L 132.761 150.400 115.204 150.400 C 104.814 150.400,97.553 150.552,97.417 150.772 " stroke="none" fill="#fbfbfb" fill-rule="evenodd"></path><path id="path2" d="M190.122 0.575 C 189.859 0.874,188.689 1.235,187.522 1.377 C 185.186 1.662,180.907 2.827,177.792 4.027 C 176.688 4.452,175.608 4.805,175.392 4.811 C 174.911 4.825,167.853 8.332,166.200 9.380 C 159.852 13.402,157.556 15.210,152.988 19.783 C 149.312 23.464,143.918 30.230,143.324 31.906 C 143.189 32.288,142.850 32.870,142.571 33.200 C 141.878 34.021,138.400 41.061,138.400 41.643 C 138.400 41.901,138.058 42.852,137.640 43.756 C 136.616 45.971,135.032 51.793,134.245 56.235 C 133.693 59.347,133.600 63.890,133.600 87.855 C 133.600 109.088,133.484 115.956,133.120 116.320 C 132.754 116.686,124.839 116.800,99.934 116.800 C 63.058 116.800,66.412 116.493,66.390 119.874 C 66.385 120.713,66.211 122.134,66.004 123.031 C 65.796 123.928,65.342 127.515,64.994 131.002 C 64.645 134.488,64.280 137.470,64.183 137.628 C 64.085 137.785,63.737 140.949,63.408 144.657 C 63.080 148.366,62.639 151.993,62.428 152.718 C 62.218 153.443,61.932 155.783,61.792 157.918 C 61.653 160.053,61.288 163.420,60.982 165.400 C 60.676 167.380,60.227 171.160,59.984 173.800 C 59.741 176.440,59.378 179.349,59.178 180.263 C 58.977 181.178,58.621 184.475,58.387 187.589 C 58.153 190.703,57.794 193.689,57.591 194.225 C 57.387 194.761,57.028 197.584,56.793 200.500 C 56.559 203.415,56.115 207.420,55.808 209.400 C 55.501 211.380,55.134 214.440,54.994 216.200 C 54.853 217.960,54.493 220.930,54.194 222.800 C 53.895 224.670,53.531 228.000,53.384 230.200 C 53.238 232.400,52.881 235.370,52.591 236.800 C 52.302 238.230,51.947 241.110,51.803 243.200 C 51.659 245.290,51.290 248.620,50.983 250.600 C 50.676 252.580,50.227 256.360,49.984 259.000 C 49.741 261.640,49.379 264.545,49.180 265.455 C 48.980 266.366,48.634 269.516,48.410 272.455 C 48.186 275.395,47.823 278.427,47.603 279.194 C 47.382 279.961,47.010 283.021,46.775 285.994 C 46.540 288.967,46.185 292.138,45.986 293.039 C 45.787 293.941,45.343 297.612,45.000 301.196 C 44.657 304.781,44.297 307.843,44.199 308.002 C 44.101 308.160,43.748 311.240,43.416 314.845 C 43.083 318.450,42.643 321.976,42.439 322.681 C 42.234 323.385,41.949 325.815,41.805 328.081 C 41.660 330.346,41.291 333.820,40.984 335.800 C 40.676 337.780,40.227 341.560,39.984 344.200 C 39.741 346.840,39.382 349.734,39.185 350.630 C 38.989 351.527,38.632 354.710,38.393 357.705 C 38.154 360.700,37.788 363.744,37.580 364.470 C 37.372 365.195,37.010 368.221,36.775 371.194 C 36.540 374.167,36.181 377.359,35.976 378.286 C 35.771 379.213,35.338 382.723,35.014 386.086 C 34.690 389.449,34.239 393.170,34.012 394.355 C 33.785 395.540,33.624 397.340,33.653 398.355 L 33.707 400.200 34.002 398.400 C 34.165 397.410,34.490 395.685,34.726 394.566 C 34.962 393.447,35.267 390.657,35.405 388.366 C 35.543 386.075,35.902 383.030,36.202 381.600 C 36.501 380.170,36.867 376.840,37.014 374.200 C 37.161 371.560,37.526 368.647,37.827 367.727 C 38.127 366.807,38.548 363.387,38.762 360.127 C 38.977 356.867,39.350 353.570,39.592 352.800 C 39.833 352.030,40.198 348.863,40.402 345.761 C 40.606 342.660,40.965 339.618,41.200 339.000 C 41.435 338.382,41.790 335.340,41.990 332.239 C 42.190 329.137,42.618 325.520,42.942 324.200 C 43.265 322.880,43.641 319.593,43.776 316.896 C 43.912 314.199,44.205 311.513,44.427 310.929 C 44.649 310.344,45.014 307.511,45.237 304.633 C 45.461 301.755,45.900 298.140,46.213 296.600 C 46.526 295.060,46.895 291.730,47.032 289.200 C 47.170 286.670,47.532 283.700,47.837 282.600 C 48.142 281.500,48.563 277.990,48.772 274.800 C 48.982 271.610,49.350 268.370,49.592 267.600 C 49.833 266.830,50.198 263.663,50.402 260.561 C 50.606 257.460,50.965 254.418,51.200 253.800 C 51.435 253.182,51.790 250.140,51.990 247.039 C 52.190 243.937,52.619 240.320,52.943 239.000 C 53.268 237.680,53.650 234.375,53.793 231.656 C 53.936 228.937,54.228 226.251,54.442 225.689 C 54.656 225.126,55.014 222.311,55.237 219.433 C 55.461 216.555,55.900 212.940,56.213 211.400 C 56.526 209.860,56.895 206.530,57.032 204.000 C 57.170 201.470,57.532 198.500,57.837 197.400 C 58.142 196.300,58.563 192.790,58.772 189.600 C 58.982 186.410,59.350 183.170,59.592 182.400 C 59.833 181.630,60.198 178.463,60.402 175.361 C 60.606 172.260,60.965 169.218,61.200 168.600 C 61.435 167.982,61.788 164.940,61.985 161.839 C 62.182 158.737,62.546 155.667,62.794 155.015 C 63.042 154.363,63.422 151.213,63.637 148.015 C 63.853 144.817,64.292 141.030,64.614 139.600 C 64.936 138.170,65.373 134.750,65.585 132.000 C 65.798 129.250,66.156 126.010,66.381 124.800 C 66.606 123.590,66.897 121.385,67.027 119.900 L 67.264 117.200 99.932 117.194 C 119.813 117.190,132.835 117.039,133.200 116.809 C 133.720 116.480,133.832 112.648,134.041 87.915 C 134.288 58.720,134.486 55.047,136.059 50.600 C 136.293 49.940,136.670 48.500,136.899 47.400 C 137.127 46.300,137.566 45.107,137.874 44.750 C 138.182 44.392,138.541 43.402,138.671 42.550 C 138.802 41.697,139.152 40.718,139.449 40.374 C 139.747 40.030,140.205 39.130,140.468 38.374 C 140.731 37.618,141.183 36.762,141.473 36.471 C 141.763 36.181,142.000 35.624,142.000 35.233 C 142.000 34.843,142.360 34.198,142.800 33.800 C 143.240 33.402,143.600 32.904,143.600 32.694 C 143.600 32.120,146.084 28.400,146.467 28.400 C 146.650 28.400,146.800 28.199,146.800 27.953 C 146.800 27.707,147.346 26.852,148.014 26.053 C 149.588 24.169,153.655 19.648,154.305 19.058 C 156.646 16.934,158.189 15.651,159.426 14.800 C 160.226 14.250,161.264 13.440,161.733 13.000 C 162.700 12.092,163.655 11.481,165.432 10.634 C 166.109 10.311,166.887 9.777,167.159 9.449 C 167.432 9.120,168.195 8.733,168.855 8.588 C 169.514 8.443,170.144 8.089,170.255 7.802 C 170.365 7.514,171.055 7.166,171.788 7.029 C 172.520 6.891,173.340 6.514,173.609 6.189 C 173.878 5.865,174.488 5.600,174.964 5.600 C 175.441 5.600,176.544 5.236,177.415 4.790 C 178.287 4.345,179.720 3.865,180.600 3.724 C 181.480 3.584,182.920 3.142,183.800 2.743 C 184.680 2.344,186.300 1.999,187.400 1.977 C 189.918 1.925,192.890 1.156,193.104 0.500 C 193.330 -0.195,190.741 -0.130,190.122 0.575 M206.800 0.410 C 206.800 1.069,208.648 1.591,212.348 1.976 C 214.246 2.174,216.340 2.620,217.000 2.966 C 217.660 3.312,218.615 3.596,219.122 3.598 C 219.629 3.599,220.805 3.947,221.736 4.371 C 222.666 4.795,223.962 5.269,224.614 5.424 C 225.266 5.580,226.070 5.939,226.400 6.223 C 226.730 6.506,227.540 6.869,228.200 7.030 C 228.860 7.191,229.829 7.655,230.354 8.061 C 230.879 8.467,231.649 8.800,232.066 8.800 C 232.484 8.800,232.931 9.077,233.061 9.415 C 233.191 9.753,233.860 10.298,234.549 10.626 C 239.671 13.064,246.763 19.345,252.136 26.200 C 253.966 28.535,256.041 31.656,256.412 32.632 C 256.619 33.176,257.061 33.725,257.394 33.853 C 257.727 33.981,258.000 34.402,258.000 34.789 C 258.000 35.176,258.360 35.950,258.800 36.509 C 259.240 37.069,259.600 37.830,259.600 38.201 C 259.600 38.573,259.945 39.360,260.366 39.952 C 260.787 40.543,261.258 41.705,261.414 42.533 C 261.569 43.361,261.931 44.273,262.217 44.560 C 262.503 44.846,262.930 46.122,263.165 47.395 C 263.401 48.668,263.773 49.927,263.993 50.192 C 264.213 50.457,264.561 52.277,264.765 54.237 C 264.970 56.197,265.370 58.340,265.656 59.000 C 266.060 59.935,266.206 66.447,266.316 88.500 C 266.393 104.065,266.489 116.842,266.528 116.894 C 266.568 116.946,281.540 117.081,299.800 117.194 L 333.000 117.400 333.270 121.471 C 333.419 123.709,333.723 125.883,333.947 126.301 C 334.171 126.719,334.469 129.387,334.610 132.230 C 334.752 135.074,335.126 138.342,335.443 139.493 C 335.759 140.644,336.182 144.176,336.383 147.342 C 336.584 150.507,337.014 154.065,337.339 155.249 C 337.664 156.432,338.033 159.560,338.160 162.200 C 338.287 164.840,338.582 167.630,338.817 168.400 C 339.052 169.170,339.406 172.140,339.604 175.000 C 339.802 177.860,340.232 181.460,340.560 183.000 C 340.888 184.540,341.329 188.230,341.540 191.200 C 341.750 194.170,342.114 197.050,342.348 197.600 C 342.582 198.150,342.951 201.341,343.167 204.690 C 343.384 208.040,343.737 211.109,343.952 211.510 C 344.167 211.911,344.460 214.481,344.605 217.220 C 344.749 219.959,345.132 223.280,345.457 224.600 C 345.781 225.920,346.212 229.568,346.414 232.707 C 346.616 235.846,347.040 239.356,347.356 240.507 C 347.672 241.658,348.033 244.760,348.160 247.400 C 348.287 250.040,348.582 252.830,348.817 253.600 C 349.052 254.370,349.407 257.332,349.607 260.182 C 349.807 263.032,350.240 266.632,350.570 268.182 C 350.900 269.732,351.341 273.457,351.549 276.460 C 351.758 279.463,352.119 282.274,352.350 282.707 C 352.582 283.140,352.884 285.723,353.021 288.447 C 353.158 291.171,353.516 294.417,353.816 295.659 C 354.117 296.902,354.476 300.052,354.616 302.659 C 354.755 305.267,355.134 308.480,355.458 309.800 C 355.782 311.120,356.204 314.646,356.396 317.636 C 356.588 320.626,357.009 324.136,357.331 325.436 C 357.653 326.736,358.023 329.987,358.153 332.659 C 358.283 335.332,358.583 338.028,358.820 338.651 C 359.056 339.274,359.413 342.213,359.612 345.182 C 359.811 348.151,360.243 351.844,360.572 353.390 C 360.901 354.935,361.341 358.657,361.549 361.660 C 361.758 364.663,362.119 367.474,362.350 367.907 C 362.582 368.340,362.884 370.923,363.021 373.647 C 363.158 376.371,363.516 379.617,363.816 380.859 C 364.117 382.102,364.476 385.252,364.616 387.859 C 364.755 390.467,365.124 393.650,365.435 394.932 C 365.746 396.215,366.003 397.655,366.006 398.132 C 366.009 398.610,366.188 399.270,366.403 399.600 C 366.846 400.279,366.680 398.386,365.789 392.600 C 365.484 390.620,365.122 387.470,364.985 385.600 C 364.847 383.730,364.489 380.670,364.189 378.800 C 363.889 376.930,363.526 373.690,363.383 371.600 C 363.240 369.510,362.878 366.540,362.579 365.000 C 362.280 363.460,361.842 359.698,361.605 356.641 C 361.368 353.583,361.085 350.938,360.977 350.763 C 360.869 350.588,360.427 347.240,359.994 343.323 C 359.266 336.738,359.041 334.757,358.006 325.800 C 357.803 324.040,357.450 321.250,357.223 319.600 C 356.996 317.950,356.637 314.890,356.427 312.800 C 355.865 307.224,354.866 298.795,354.198 294.000 C 353.877 291.690,353.432 287.640,353.210 285.000 C 352.989 282.360,352.644 279.635,352.444 278.944 C 352.245 278.254,351.959 275.914,351.810 273.744 C 351.661 271.575,351.295 268.180,350.996 266.200 C 350.697 264.220,350.255 260.440,350.015 257.800 C 349.775 255.160,349.404 252.190,349.191 251.200 C 348.978 250.210,348.625 247.102,348.406 244.293 C 348.187 241.484,347.745 237.704,347.423 235.893 C 347.100 234.082,346.663 230.620,346.451 228.200 C 346.040 223.526,345.166 216.106,344.211 209.200 C 343.891 206.890,343.516 203.290,343.376 201.200 C 343.237 199.110,342.879 196.140,342.582 194.600 C 342.285 193.060,341.844 189.384,341.602 186.431 C 341.360 183.478,341.078 180.927,340.976 180.762 C 340.874 180.597,340.441 177.023,340.012 172.820 C 339.584 168.617,339.140 165.027,339.026 164.842 C 338.912 164.658,338.640 162.158,338.421 159.287 C 338.203 156.416,337.757 152.567,337.431 150.733 C 337.104 148.900,336.663 145.420,336.451 143.000 C 336.075 138.727,335.415 133.068,334.186 123.600 C 333.857 121.070,333.546 118.550,333.494 118.000 L 333.400 117.000 300.200 116.800 L 267.000 116.600 266.780 88.000 L 266.561 59.400 265.482 54.277 C 264.889 51.460,264.247 48.850,264.055 48.477 C 263.862 48.105,263.579 47.101,263.424 46.246 C 263.270 45.391,262.796 44.044,262.372 43.252 C 261.947 42.460,261.600 41.608,261.600 41.359 C 261.600 40.944,258.509 34.605,257.622 33.200 C 256.760 31.835,252.756 25.911,252.296 25.321 C 249.393 21.589,238.536 11.600,237.384 11.600 C 237.278 11.600,236.339 11.006,235.296 10.280 C 233.062 8.725,225.232 4.800,224.363 4.800 C 224.031 4.800,223.589 4.629,223.380 4.421 C 223.171 4.212,221.978 3.775,220.728 3.450 C 219.479 3.125,218.126 2.681,217.721 2.465 C 217.316 2.248,215.489 1.852,213.660 1.585 C 211.579 1.280,210.257 0.893,210.125 0.549 C 209.879 -0.093,206.800 -0.222,206.800 0.410 M190.200 17.037 C 189.320 17.386,187.664 17.819,186.521 17.999 C 185.377 18.178,184.032 18.612,183.532 18.963 C 183.031 19.313,182.312 19.600,181.932 19.600 C 181.553 19.600,180.396 20.050,179.362 20.600 C 178.327 21.150,177.232 21.600,176.928 21.600 C 176.624 21.600,176.276 21.859,176.154 22.176 C 176.033 22.492,175.396 22.869,174.740 23.013 C 174.083 23.157,173.449 23.528,173.330 23.838 C 173.212 24.147,172.890 24.400,172.616 24.400 C 172.341 24.400,171.663 24.805,171.107 25.300 C 170.552 25.795,169.516 26.650,168.806 27.200 C 166.214 29.205,165.505 29.822,164.462 30.978 C 163.878 31.627,163.029 32.527,162.575 32.978 C 161.214 34.335,156.847 40.256,156.314 41.469 C 156.041 42.091,155.602 42.736,155.340 42.902 C 155.077 43.069,154.737 43.778,154.582 44.480 C 154.428 45.181,154.076 45.981,153.799 46.258 C 153.523 46.534,153.169 47.445,153.014 48.280 C 152.859 49.116,152.499 50.070,152.213 50.400 C 151.927 50.730,151.503 51.990,151.270 53.200 C 151.038 54.410,150.567 56.384,150.224 57.587 C 149.403 60.464,149.269 115.909,150.080 116.720 C 150.589 117.229,248.452 117.462,249.767 116.957 C 250.869 116.534,250.712 59.667,249.600 56.504 C 249.160 55.252,248.800 53.765,248.800 53.198 C 248.800 52.632,248.442 51.466,248.004 50.607 C 247.566 49.748,247.097 48.456,246.962 47.737 C 246.827 47.017,246.477 46.230,246.184 45.987 C 245.891 45.744,245.538 45.030,245.400 44.400 C 245.262 43.770,244.890 43.041,244.574 42.779 C 244.258 42.517,244.000 42.068,244.000 41.782 C 244.000 41.496,243.550 40.727,243.000 40.073 C 242.450 39.419,242.000 38.694,242.000 38.462 C 242.000 38.230,241.759 37.896,241.465 37.720 C 241.170 37.544,240.765 37.106,240.565 36.747 C 240.191 36.078,237.794 33.219,235.986 31.285 C 235.428 30.688,233.808 29.253,232.386 28.096 C 230.964 26.939,229.535 25.769,229.210 25.496 C 227.954 24.439,225.378 22.814,224.949 22.807 C 224.701 22.803,224.283 22.542,224.021 22.226 C 223.759 21.910,223.030 21.538,222.400 21.400 C 221.770 21.262,221.045 20.895,220.787 20.585 C 220.530 20.275,219.706 19.906,218.955 19.765 C 218.205 19.625,216.925 19.170,216.111 18.755 C 215.297 18.340,214.120 18.000,213.496 18.000 C 212.871 18.000,211.784 17.685,211.080 17.301 C 209.222 16.286,192.621 16.076,190.200 17.037 M207.400 17.203 C 208.280 17.406,210.170 17.818,211.600 18.119 C 214.974 18.829,221.101 21.109,223.200 22.436 C 223.530 22.644,224.265 23.037,224.834 23.308 C 227.656 24.651,235.518 31.224,237.623 34.000 C 238.374 34.990,239.904 36.970,241.023 38.400 C 242.988 40.911,246.797 48.045,246.802 49.224 C 246.804 49.541,247.085 50.337,247.427 50.993 C 247.769 51.649,248.324 53.539,248.661 55.193 C 248.997 56.847,249.438 59.017,249.639 60.016 C 249.846 61.041,249.961 73.754,249.903 89.216 L 249.800 116.600 200.443 116.702 C 163.172 116.778,150.947 116.688,150.521 116.334 C 149.622 115.588,149.957 60.252,150.878 57.400 C 151.233 56.300,151.641 54.549,151.785 53.509 C 151.929 52.469,152.211 51.517,152.412 51.392 C 152.614 51.268,152.977 50.409,153.220 49.483 C 153.741 47.499,156.170 42.442,157.607 40.350 C 165.046 29.517,175.671 21.444,186.000 18.776 C 192.869 17.002,193.930 16.853,199.800 16.844 C 203.100 16.839,206.520 17.001,207.400 17.203 M96.239 150.218 C 95.311 151.146,94.906 153.282,94.628 158.704 C 94.490 161.401,94.189 164.101,93.960 164.704 C 93.731 165.307,93.361 168.585,93.138 171.990 C 92.914 175.394,92.551 178.517,92.331 178.930 C 92.110 179.342,91.755 182.137,91.543 185.140 C 91.331 188.143,90.888 191.860,90.560 193.400 C 90.232 194.940,89.800 198.540,89.601 201.400 C 89.402 204.260,89.055 207.230,88.830 208.000 C 88.606 208.770,88.253 211.920,88.046 215.000 C 87.840 218.080,87.466 221.129,87.217 221.775 C 86.967 222.421,86.605 225.585,86.412 228.807 C 86.220 232.028,85.794 235.639,85.465 236.832 C 85.137 238.024,84.758 241.207,84.623 243.904 C 84.488 246.601,84.191 249.298,83.964 249.896 C 83.736 250.494,83.375 253.687,83.162 256.992 C 82.948 260.296,82.577 263.450,82.338 264.000 C 82.099 264.550,81.654 267.880,81.349 271.400 C 81.045 274.920,80.534 279.150,80.214 280.800 C 79.894 282.450,79.622 285.150,79.610 286.800 C 79.598 288.450,79.324 290.920,79.001 292.290 C 78.678 293.659,78.247 297.259,78.042 300.290 C 77.838 303.320,77.466 306.329,77.217 306.975 C 76.967 307.621,76.596 310.771,76.393 313.975 C 76.189 317.179,75.766 320.790,75.452 322.000 C 75.138 323.210,74.768 326.407,74.629 329.104 C 74.490 331.801,74.191 334.498,73.964 335.096 C 73.736 335.694,73.368 338.887,73.145 342.192 C 72.923 345.496,72.502 348.920,72.210 349.800 C 71.919 350.680,71.553 353.650,71.397 356.400 C 71.241 359.150,70.881 362.428,70.596 363.684 C 70.144 365.681,70.157 366.032,70.701 366.484 C 71.819 367.412,328.028 367.430,329.172 366.502 C 330.013 365.819,330.021 365.729,329.459 363.200 C 329.142 361.770,328.775 358.522,328.644 355.983 C 328.513 353.443,328.152 350.473,327.841 349.383 C 327.531 348.292,327.157 345.240,327.012 342.600 C 326.866 339.960,326.501 336.630,326.202 335.200 C 325.902 333.770,325.547 330.710,325.412 328.400 C 325.278 326.090,324.910 323.120,324.596 321.800 C 324.281 320.480,323.848 316.783,323.634 313.585 C 323.420 310.387,323.042 307.237,322.794 306.585 C 322.546 305.933,322.179 302.880,321.980 299.800 C 321.780 296.720,321.425 293.570,321.191 292.800 C 320.956 292.030,320.606 288.880,320.413 285.800 C 320.220 282.720,319.857 279.663,319.606 279.007 C 319.355 278.351,318.977 275.201,318.767 272.007 C 318.557 268.813,318.136 265.300,317.832 264.200 C 317.529 263.100,317.163 260.040,317.019 257.400 C 316.875 254.760,316.510 251.520,316.206 250.200 C 315.903 248.880,315.543 245.820,315.407 243.400 C 315.271 240.980,314.900 237.920,314.583 236.600 C 314.266 235.280,313.837 231.587,313.629 228.393 C 313.421 225.199,313.046 222.049,312.797 221.393 C 312.547 220.737,312.179 217.680,311.980 214.600 C 311.780 211.520,311.425 208.370,311.191 207.600 C 310.956 206.830,310.606 203.680,310.413 200.600 C 310.220 197.520,309.852 194.460,309.594 193.800 C 309.337 193.140,308.961 189.990,308.759 186.800 C 308.557 183.610,308.141 180.100,307.836 179.000 C 307.530 177.900,307.161 174.840,307.015 172.200 C 306.870 169.560,306.502 166.230,306.198 164.800 C 305.893 163.370,305.467 159.803,305.250 156.873 C 304.980 153.217,304.656 151.239,304.216 150.569 L 303.576 149.592 285.088 149.696 L 266.600 149.800 266.400 163.200 L 266.200 176.600 264.982 178.600 C 264.275 179.761,263.202 180.885,262.424 181.278 C 261.687 181.651,260.894 182.146,260.662 182.378 C 260.010 183.030,256.580 182.899,256.000 182.200 C 255.726 181.870,255.278 181.600,255.005 181.600 C 254.125 181.600,252.515 180.059,251.563 178.306 C 250.658 176.638,250.634 176.306,250.493 163.408 C 250.388 153.802,250.220 150.134,249.875 149.914 C 249.018 149.370,150.627 149.533,150.080 150.080 C 149.727 150.433,149.599 153.902,149.596 163.180 C 149.592 176.896,149.369 178.329,146.904 180.519 C 144.572 182.592,140.299 183.524,139.200 182.200 C 138.926 181.870,138.461 181.600,138.167 181.600 C 137.507 181.600,136.225 180.285,134.957 178.308 L 134.000 176.816 134.000 163.982 C 134.000 155.900,133.847 150.861,133.586 150.374 C 133.011 149.299,97.307 149.150,96.239 150.218 M133.120 150.480 C 133.474 150.834,133.600 154.415,133.600 164.109 L 133.600 177.258 134.659 179.065 C 137.890 184.578,145.133 184.574,148.722 179.057 L 149.800 177.400 149.920 164.132 C 150.013 153.811,150.156 150.769,150.563 150.431 C 150.934 150.123,165.404 150.026,200.443 150.098 L 249.800 150.200 250.000 163.800 L 250.200 177.400 251.308 179.104 C 254.796 184.472,261.638 184.546,265.312 179.255 L 266.600 177.400 266.800 163.800 L 267.000 150.200 284.800 150.104 C 294.590 150.051,302.845 150.164,303.145 150.355 C 303.829 150.791,304.252 152.950,304.800 158.800 C 305.037 161.330,305.492 165.020,305.812 167.000 C 306.132 168.980,306.579 172.985,306.807 175.900 C 307.034 178.816,307.385 181.633,307.586 182.162 C 307.787 182.691,308.154 185.706,308.401 188.862 C 308.648 192.018,309.006 195.320,309.196 196.200 C 309.387 197.080,309.741 199.960,309.984 202.600 C 310.227 205.240,310.677 209.020,310.985 211.000 C 311.294 212.980,311.666 216.375,311.814 218.544 C 311.961 220.714,312.245 223.054,312.446 223.744 C 312.647 224.435,313.080 228.034,313.408 231.743 C 313.737 235.451,314.085 238.615,314.183 238.772 C 314.280 238.930,314.643 241.890,314.989 245.350 C 315.334 248.810,315.789 252.487,315.999 253.520 C 316.208 254.554,316.568 257.873,316.798 260.895 C 317.028 263.917,317.381 266.825,317.584 267.357 C 317.786 267.889,318.154 270.906,318.401 274.062 C 318.648 277.218,319.006 280.520,319.196 281.400 C 319.387 282.280,319.741 285.160,319.984 287.800 C 320.227 290.440,320.677 294.220,320.985 296.200 C 321.294 298.180,321.666 301.575,321.814 303.744 C 321.961 305.914,322.245 308.254,322.446 308.944 C 322.647 309.635,323.080 313.234,323.408 316.943 C 323.737 320.651,324.096 323.831,324.206 324.009 C 324.316 324.187,324.673 327.123,325.000 330.532 C 325.326 333.941,325.769 337.601,325.984 338.665 C 326.198 339.729,326.563 342.952,326.794 345.827 C 327.025 348.702,327.384 351.646,327.591 352.369 C 327.799 353.092,328.173 356.320,328.424 359.542 C 328.674 362.764,328.956 365.526,329.051 365.680 C 329.721 366.773,73.392 367.543,71.672 366.453 C 71.050 366.058,71.610 357.120,72.578 352.000 C 72.890 350.350,73.257 347.290,73.394 345.200 C 73.531 343.110,73.889 339.870,74.189 338.000 C 74.489 336.130,74.848 333.070,74.988 331.200 C 75.127 329.330,75.497 326.270,75.809 324.400 C 76.121 322.530,76.563 318.660,76.791 315.800 C 77.019 312.940,77.377 310.060,77.586 309.400 C 77.795 308.740,78.160 305.694,78.397 302.630 C 78.634 299.567,78.990 296.327,79.187 295.430 C 79.384 294.534,79.747 291.550,79.992 288.800 C 80.238 286.050,80.615 282.915,80.829 281.833 C 81.044 280.751,81.401 277.601,81.622 274.833 C 81.843 272.065,82.272 268.540,82.575 267.000 C 82.879 265.460,83.245 262.400,83.389 260.200 C 83.533 258.000,83.894 254.670,84.192 252.800 C 84.490 250.930,84.853 247.870,84.998 246.000 C 85.144 244.130,85.508 241.160,85.808 239.400 C 86.108 237.640,86.548 233.727,86.785 230.705 C 87.022 227.683,87.384 224.769,87.588 224.230 C 87.793 223.691,88.153 220.703,88.387 217.589 C 88.621 214.475,88.977 211.178,89.178 210.263 C 89.378 209.349,89.741 206.440,89.984 203.800 C 90.227 201.160,90.676 197.380,90.982 195.400 C 91.288 193.420,91.653 190.053,91.792 187.918 C 91.932 185.783,92.218 183.443,92.428 182.718 C 92.639 181.993,93.080 178.366,93.408 174.657 C 93.737 170.949,94.085 167.785,94.183 167.628 C 94.280 167.470,94.643 164.510,94.989 161.050 C 95.694 153.989,96.288 150.740,96.951 150.306 C 97.766 149.773,132.580 149.940,133.120 150.480 " stroke="none" fill="#747474" fill-rule="evenodd"></path><path id="path3" d="M186.655 0.600 C 186.507 0.986,185.886 1.201,184.913 1.202 C 183.108 1.205,180.400 1.904,180.400 2.367 C 180.400 2.549,179.519 2.814,178.442 2.957 C 177.365 3.099,176.283 3.460,176.036 3.757 C 175.789 4.054,174.957 4.400,174.187 4.525 C 173.417 4.650,172.316 5.123,171.740 5.576 C 171.164 6.029,170.355 6.400,169.942 6.400 C 169.530 6.400,168.884 6.760,168.507 7.200 C 168.130 7.640,167.513 8.000,167.135 8.000 C 166.757 8.000,166.325 8.198,166.175 8.441 C 166.025 8.683,165.286 9.139,164.534 9.453 C 163.781 9.768,163.064 10.290,162.940 10.613 C 162.816 10.936,162.464 11.200,162.157 11.200 C 161.851 11.200,161.279 11.515,160.887 11.900 C 160.494 12.285,159.381 13.140,158.413 13.800 C 156.690 14.975,149.600 21.686,149.600 22.142 C 149.600 22.269,149.015 22.964,148.300 23.687 C 147.585 24.409,146.690 25.450,146.311 26.000 C 145.932 26.550,144.990 27.900,144.217 29.000 C 143.445 30.100,142.809 31.143,142.806 31.317 C 142.803 31.491,142.440 32.020,142.000 32.492 C 141.560 32.964,141.200 33.594,141.200 33.892 C 141.200 34.190,140.840 34.820,140.400 35.292 C 139.960 35.764,139.600 36.494,139.600 36.912 C 139.600 37.331,139.240 38.131,138.800 38.691 C 138.360 39.250,137.996 40.089,137.991 40.554 C 137.986 41.019,137.630 41.850,137.200 42.400 C 136.770 42.950,136.414 43.853,136.409 44.406 C 136.404 44.959,136.057 46.052,135.638 46.834 C 135.219 47.616,134.754 49.324,134.605 50.628 C 134.456 51.933,134.034 53.630,133.667 54.400 C 133.063 55.667,132.997 58.681,132.972 86.200 L 132.944 116.600 133.214 87.200 C 133.449 61.586,133.568 57.518,134.142 55.613 C 134.504 54.410,134.800 53.026,134.800 52.538 C 134.800 51.537,136.553 45.634,137.394 43.800 C 137.697 43.140,138.069 42.150,138.220 41.600 C 138.577 40.297,141.878 33.609,142.555 32.814 C 142.843 32.476,143.190 31.886,143.326 31.503 C 143.462 31.119,144.821 29.139,146.346 27.103 C 151.036 20.842,157.273 14.872,163.000 11.164 C 166.164 9.115,167.015 8.595,168.000 8.109 C 168.550 7.837,169.270 7.450,169.600 7.248 C 171.079 6.343,174.530 4.800,175.075 4.800 C 175.406 4.800,176.154 4.547,176.738 4.238 C 178.268 3.429,184.231 1.694,186.769 1.320 C 187.962 1.144,189.012 0.775,189.102 0.500 C 189.346 -0.242,186.941 -0.143,186.655 0.600 M210.899 0.500 C 210.993 0.783,212.422 1.208,214.184 1.479 C 215.900 1.742,217.892 2.237,218.612 2.579 C 219.332 2.920,220.220 3.200,220.586 3.200 C 221.279 3.200,223.969 4.225,227.400 5.796 C 228.500 6.300,229.670 6.831,230.000 6.975 C 230.330 7.120,231.320 7.673,232.200 8.204 C 233.080 8.735,234.499 9.582,235.354 10.085 C 237.883 11.574,238.201 11.776,238.815 12.290 C 239.137 12.559,240.570 13.714,242.000 14.857 C 245.318 17.508,249.292 21.482,251.943 24.800 C 253.086 26.230,254.214 27.637,254.451 27.927 C 256.344 30.243,262.000 40.800,262.000 42.017 C 262.000 42.360,262.198 42.838,262.440 43.080 C 263.196 43.836,265.174 51.481,266.404 58.400 C 266.634 59.692,266.796 72.018,266.798 88.276 C 266.799 103.498,266.935 116.036,267.100 116.138 C 267.780 116.559,267.046 55.485,266.355 54.200 C 266.001 53.540,265.607 51.951,265.481 50.669 C 265.355 49.387,264.997 47.947,264.686 47.469 C 264.375 46.991,263.993 45.912,263.837 45.071 C 263.681 44.230,263.204 42.970,262.778 42.271 C 262.352 41.572,262.002 40.668,262.001 40.263 C 262.001 39.858,261.640 39.069,261.200 38.509 C 260.760 37.950,260.400 37.181,260.400 36.800 C 260.400 36.419,260.040 35.650,259.600 35.091 C 259.160 34.531,258.800 33.971,258.800 33.845 C 258.800 33.719,258.127 32.577,257.304 31.308 C 255.066 27.854,255.070 27.860,254.082 26.311 C 253.576 25.519,252.901 24.771,252.582 24.648 C 252.262 24.526,252.000 24.236,252.000 24.004 C 252.000 23.573,243.630 15.165,241.938 13.896 C 241.422 13.510,240.434 12.745,239.742 12.196 C 239.050 11.648,238.308 11.200,238.091 11.200 C 237.875 11.200,237.477 10.934,237.207 10.608 C 236.937 10.283,236.240 9.776,235.658 9.482 C 234.030 8.659,232.699 7.868,231.649 7.100 C 231.123 6.715,230.381 6.400,230.000 6.400 C 229.619 6.400,228.848 6.038,228.286 5.596 C 227.725 5.155,226.665 4.680,225.932 4.542 C 225.200 4.403,224.330 4.060,224.000 3.779 C 223.670 3.498,222.680 3.135,221.800 2.973 C 220.920 2.812,219.801 2.420,219.314 2.103 C 218.827 1.786,217.326 1.427,215.979 1.305 C 214.459 1.167,213.451 0.877,213.322 0.541 C 213.054 -0.157,210.668 -0.198,210.899 0.500 M193.800 17.181 C 192.920 17.363,191.120 17.736,189.800 18.008 C 186.003 18.792,180.273 20.810,177.200 22.445 C 174.809 23.717,172.098 25.404,171.567 25.949 C 171.219 26.307,170.332 27.050,169.596 27.600 C 164.546 31.373,160.907 35.537,156.490 42.600 C 153.314 47.678,150.745 56.827,150.593 63.600 C 150.500 67.737,150.503 67.749,150.749 64.400 C 150.887 62.530,151.146 60.774,151.325 60.498 C 151.503 60.222,151.810 58.446,152.005 56.551 C 152.201 54.649,152.613 52.814,152.925 52.453 C 153.236 52.094,153.607 51.170,153.749 50.400 C 153.892 49.630,154.357 48.280,154.783 47.400 C 155.209 46.520,155.666 45.530,155.798 45.200 C 155.930 44.870,156.478 43.880,157.016 43.000 C 157.554 42.120,158.268 40.815,158.603 40.100 C 158.937 39.385,159.393 38.800,159.615 38.800 C 159.838 38.800,160.191 38.350,160.400 37.800 C 160.609 37.250,160.930 36.800,161.113 36.800 C 161.297 36.800,161.976 36.064,162.623 35.165 C 163.956 33.312,166.091 31.018,166.938 30.528 C 167.676 30.101,171.101 27.201,171.932 26.300 C 172.287 25.915,172.774 25.600,173.013 25.600 C 173.253 25.600,173.812 25.262,174.255 24.849 C 174.699 24.436,175.498 23.961,176.031 23.794 C 176.564 23.627,177.429 23.155,177.954 22.745 C 178.479 22.335,179.199 21.999,179.554 21.997 C 179.909 21.996,180.740 21.637,181.400 21.200 C 182.060 20.763,183.055 20.404,183.611 20.403 C 184.167 20.401,185.039 20.108,185.548 19.751 C 186.057 19.395,187.869 18.947,189.573 18.756 C 191.278 18.565,193.444 18.137,194.387 17.805 C 196.709 16.985,203.321 16.995,205.650 17.821 C 206.612 18.163,208.570 18.544,210.000 18.668 C 211.430 18.792,213.320 19.221,214.200 19.622 C 215.080 20.022,216.457 20.456,217.260 20.585 C 218.063 20.715,218.940 21.086,219.209 21.411 C 219.478 21.735,219.949 22.000,220.257 22.000 C 220.924 22.000,225.102 24.187,226.018 25.016 C 226.373 25.337,226.834 25.600,227.043 25.600 C 227.252 25.600,228.048 26.201,228.812 26.936 C 229.575 27.671,231.038 28.908,232.063 29.685 C 234.133 31.253,235.731 32.831,237.130 34.688 C 237.641 35.367,238.686 36.614,239.452 37.461 C 240.217 38.307,241.094 39.585,241.401 40.300 C 241.708 41.015,242.148 41.600,242.380 41.600 C 242.611 41.600,242.800 41.846,242.800 42.146 C 242.800 42.446,243.133 43.121,243.539 43.646 C 243.945 44.171,244.409 45.140,244.570 45.800 C 244.731 46.460,245.118 47.284,245.430 47.630 C 245.743 47.977,246.155 49.100,246.347 50.126 C 246.538 51.152,246.918 52.261,247.191 52.589 C 247.464 52.918,247.843 54.583,248.035 56.290 C 248.226 57.996,248.612 59.934,248.891 60.596 C 249.286 61.531,249.400 67.907,249.400 89.080 C 249.400 104.083,249.547 116.212,249.727 116.033 C 250.272 115.488,249.832 60.443,249.270 58.800 C 249.006 58.030,248.607 56.260,248.382 54.866 C 248.158 53.472,247.727 51.942,247.426 51.466 C 247.125 50.990,246.755 50.008,246.604 49.283 C 245.798 45.420,239.743 35.993,235.236 31.587 C 232.507 28.918,226.564 24.378,224.400 23.309 C 223.850 23.037,223.130 22.644,222.800 22.436 C 222.128 22.011,219.711 20.966,216.363 19.653 C 215.133 19.171,213.020 18.598,211.669 18.380 C 210.317 18.162,208.713 17.786,208.105 17.544 C 206.739 17.001,195.985 16.727,193.800 17.181 M66.164 117.500 C 66.025 118.105,65.680 119.320,65.396 120.200 C 65.113 121.080,64.755 124.230,64.602 127.200 C 64.448 130.170,64.090 133.320,63.806 134.200 C 63.522 135.080,63.166 138.230,63.016 141.200 C 62.865 144.170,62.483 147.320,62.167 148.200 C 61.851 149.080,61.423 152.410,61.216 155.600 C 61.008 158.790,60.564 162.570,60.228 164.000 C 59.892 165.430,59.613 168.137,59.608 170.016 C 59.604 171.895,59.315 174.505,58.966 175.816 C 58.618 177.127,58.191 180.720,58.018 183.800 C 57.845 186.880,57.482 189.940,57.211 190.600 C 56.940 191.260,56.567 194.448,56.381 197.685 C 56.194 200.921,55.781 204.341,55.461 205.285 C 55.142 206.228,54.755 209.430,54.602 212.400 C 54.448 215.370,54.090 218.520,53.806 219.400 C 53.522 220.280,53.166 223.430,53.016 226.400 C 52.865 229.370,52.483 232.520,52.167 233.400 C 51.851 234.280,51.423 237.610,51.216 240.800 C 51.008 243.990,50.564 247.770,50.228 249.200 C 49.892 250.630,49.613 253.337,49.608 255.216 C 49.604 257.095,49.316 259.705,48.970 261.016 C 48.623 262.327,48.191 265.920,48.011 269.000 C 47.830 272.080,47.466 275.140,47.202 275.800 C 46.938 276.460,46.568 279.556,46.378 282.680 C 46.189 285.805,45.765 289.315,45.436 290.480 C 45.107 291.646,44.722 294.940,44.579 297.800 C 44.437 300.660,44.086 303.720,43.800 304.600 C 43.514 305.480,43.158 308.630,43.008 311.600 C 42.857 314.570,42.478 317.720,42.163 318.600 C 41.849 319.480,41.423 322.810,41.216 326.000 C 41.008 329.190,40.564 332.970,40.228 334.400 C 39.892 335.830,39.613 338.537,39.608 340.416 C 39.604 342.295,39.316 344.905,38.970 346.216 C 38.623 347.527,38.196 351.134,38.020 354.231 C 37.845 357.329,37.486 360.266,37.222 360.758 C 36.959 361.251,36.579 364.401,36.377 367.760 C 36.176 371.118,35.761 374.576,35.455 375.443 C 35.150 376.310,34.771 379.445,34.615 382.410 C 34.459 385.374,34.090 388.700,33.796 389.800 C 33.502 390.900,33.172 393.690,33.064 396.000 C 32.897 399.531,32.927 399.849,33.251 398.000 C 34.169 392.765,34.800 388.037,34.803 386.383 C 34.804 385.402,35.075 382.890,35.404 380.800 C 35.733 378.710,36.266 374.247,36.590 370.883 C 36.913 367.519,37.353 364.099,37.567 363.283 C 37.781 362.467,38.069 360.000,38.208 357.800 C 38.346 355.600,38.705 352.270,39.006 350.400 C 39.307 348.530,39.755 344.750,40.002 342.000 C 40.249 339.250,40.611 336.274,40.808 335.387 C 41.004 334.500,41.351 331.482,41.578 328.680 C 41.806 325.878,42.254 322.104,42.575 320.293 C 42.896 318.482,43.346 314.930,43.574 312.400 C 44.047 307.161,44.566 302.618,45.448 296.000 C 45.785 293.470,46.305 288.761,46.605 285.536 C 46.905 282.310,47.333 278.980,47.556 278.136 C 47.780 277.291,48.145 274.138,48.368 271.129 C 48.592 268.119,48.955 264.879,49.176 263.929 C 49.397 262.978,49.774 259.860,50.013 257.000 C 50.252 254.140,50.623 251.012,50.837 250.049 C 51.051 249.086,51.397 246.061,51.606 243.326 C 51.814 240.590,52.248 236.968,52.569 235.276 C 52.890 233.584,53.265 230.400,53.402 228.200 C 53.540 226.000,53.823 223.428,54.031 222.484 C 54.240 221.541,54.590 218.571,54.809 215.884 C 55.028 213.198,55.461 209.650,55.771 208.000 C 56.080 206.350,56.456 203.110,56.605 200.800 C 56.754 198.490,57.124 195.340,57.426 193.800 C 57.729 192.260,58.157 188.735,58.378 185.967 C 58.599 183.199,58.956 180.049,59.172 178.967 C 59.388 177.885,59.766 174.660,60.012 171.800 C 60.258 168.940,60.621 165.969,60.818 165.199 C 61.016 164.428,61.371 161.222,61.608 158.073 C 61.845 154.925,62.206 151.911,62.409 151.375 C 62.613 150.839,62.968 148.016,63.198 145.100 C 63.428 142.185,63.876 138.000,64.193 135.800 C 64.511 133.600,64.970 129.910,65.213 127.600 C 65.962 120.468,66.566 117.193,67.203 116.789 C 67.711 116.469,67.697 116.411,67.108 116.406 C 66.677 116.402,66.320 116.817,66.164 117.500 M333.041 116.835 C 333.580 117.527,334.625 124.135,335.217 130.600 C 335.459 133.240,335.818 136.134,336.015 137.030 C 336.211 137.927,336.568 141.110,336.807 144.105 C 337.046 147.100,337.416 150.147,337.630 150.875 C 337.844 151.604,338.199 154.520,338.419 157.354 C 338.639 160.189,339.074 164.059,339.386 165.954 C 339.698 167.850,340.066 170.930,340.205 172.800 C 340.344 174.670,340.703 177.640,341.003 179.400 C 341.304 181.160,341.667 184.400,341.811 186.600 C 341.954 188.800,342.313 191.770,342.607 193.200 C 342.901 194.630,343.258 197.600,343.400 199.800 C 343.542 202.000,343.904 205.240,344.204 207.000 C 344.505 208.760,344.951 212.540,345.195 215.400 C 345.439 218.260,345.801 221.230,345.999 222.000 C 346.197 222.770,346.556 225.951,346.798 229.068 C 347.040 232.186,347.413 235.336,347.628 236.068 C 347.843 236.801,348.192 239.650,348.404 242.400 C 348.617 245.150,349.061 249.110,349.392 251.200 C 349.723 253.290,350.057 255.630,350.133 256.400 C 350.209 257.170,350.299 256.180,350.331 254.200 C 350.368 251.993,350.151 249.749,349.773 248.400 C 349.433 247.190,349.001 243.638,348.812 240.506 C 348.623 237.374,348.199 233.954,347.870 232.906 C 347.541 231.858,347.170 228.750,347.046 226.000 C 346.923 223.250,346.565 220.100,346.252 219.000 C 345.939 217.900,345.575 214.840,345.444 212.200 C 345.313 209.560,345.007 206.680,344.763 205.800 C 344.519 204.920,344.090 201.320,343.809 197.800 C 343.529 194.280,343.088 190.871,342.831 190.225 C 342.574 189.579,342.204 186.396,342.010 183.152 C 341.816 179.908,341.455 176.877,341.208 176.415 C 340.961 175.954,340.668 173.377,340.555 170.688 C 340.443 168.000,340.013 164.270,339.599 162.400 C 339.185 160.530,338.758 156.840,338.650 154.200 C 338.542 151.560,338.187 148.590,337.860 147.600 C 337.534 146.610,337.167 143.550,337.044 140.800 C 336.922 138.050,336.565 134.900,336.252 133.800 C 335.939 132.700,335.575 129.640,335.444 127.000 C 335.313 124.360,335.013 121.480,334.777 120.600 C 334.541 119.720,334.220 118.473,334.064 117.830 C 333.907 117.186,333.514 116.572,333.190 116.465 C 332.734 116.314,332.700 116.398,333.041 116.835 M96.638 150.900 C 96.179 152.578,95.566 156.820,95.208 160.800 C 94.981 163.330,94.540 167.020,94.228 169.000 C 93.916 170.980,93.547 174.400,93.408 176.600 C 93.268 178.800,92.913 181.680,92.619 183.000 C 92.325 184.320,91.964 187.200,91.817 189.400 C 91.670 191.600,91.305 194.930,91.005 196.800 C 90.706 198.670,90.341 201.820,90.195 203.800 C 90.049 205.780,89.683 208.840,89.382 210.600 C 89.081 212.360,88.647 216.121,88.417 218.957 C 88.188 221.793,87.827 224.763,87.615 225.557 C 87.403 226.351,87.036 229.422,86.798 232.382 C 86.561 235.341,86.207 238.491,86.012 239.382 C 85.817 240.272,85.459 243.160,85.216 245.800 C 84.973 248.440,84.524 252.220,84.218 254.200 C 83.912 256.180,83.544 259.600,83.402 261.800 C 83.259 264.000,82.902 266.970,82.610 268.400 C 82.317 269.830,81.958 272.710,81.811 274.800 C 81.665 276.890,81.288 280.130,80.974 282.000 C 80.660 283.870,80.424 286.210,80.451 287.200 L 80.500 289.000 80.801 286.940 C 80.967 285.808,81.234 284.668,81.395 284.408 C 81.556 284.147,81.847 281.239,82.042 277.945 C 82.236 274.651,82.598 271.577,82.846 271.115 C 83.093 270.652,83.467 267.557,83.677 264.237 C 83.886 260.917,84.324 257.300,84.650 256.200 C 84.976 255.100,85.342 252.040,85.462 249.400 C 85.583 246.760,85.935 243.708,86.244 242.619 C 86.552 241.529,86.909 238.289,87.037 235.419 C 87.168 232.468,87.515 229.542,87.837 228.685 C 88.150 227.852,88.579 224.432,88.790 221.085 C 89.002 217.738,89.424 214.190,89.729 213.200 C 90.034 212.210,90.394 209.014,90.529 206.098 C 90.664 203.182,90.973 200.425,91.216 199.971 C 91.458 199.517,91.818 196.455,92.015 193.167 C 92.212 189.878,92.629 186.425,92.942 185.494 C 93.255 184.562,93.635 181.370,93.788 178.400 C 93.941 175.430,94.326 172.100,94.645 171.000 C 94.963 169.900,95.314 167.020,95.426 164.600 C 95.537 162.180,95.881 158.940,96.191 157.400 C 97.211 152.329,97.467 150.400,97.118 150.400 C 96.929 150.400,96.713 150.625,96.638 150.900 M132.975 164.200 L 133.000 178.200 134.121 179.800 C 138.945 186.687,150.585 184.164,150.350 176.282 L 150.300 174.600 150.019 176.200 C 148.631 184.100,139.164 185.937,134.609 179.191 L 133.400 177.400 133.175 163.800 L 132.950 150.200 132.975 164.200 M249.600 164.320 C 249.797 178.020,249.812 178.219,250.738 179.697 C 254.229 185.271,262.571 185.271,266.062 179.697 C 266.993 178.211,268.025 149.812,267.116 150.724 C 266.959 150.880,266.779 157.037,266.716 164.404 L 266.600 177.800 265.454 179.489 C 261.955 184.646,254.639 184.623,251.270 179.444 L 250.200 177.800 250.084 164.404 C 250.021 157.037,249.841 150.880,249.684 150.724 C 249.528 150.567,249.490 156.685,249.600 164.320 M303.241 153.549 C 303.390 155.274,303.688 157.027,303.905 157.443 C 304.122 157.859,304.428 160.718,304.587 163.796 C 304.745 166.873,305.128 170.139,305.438 171.052 C 305.748 171.965,306.164 175.386,306.362 178.656 C 306.560 181.925,306.939 185.140,307.202 185.800 C 307.466 186.460,307.830 189.520,308.011 192.600 C 308.191 195.680,308.623 199.273,308.970 200.584 C 309.316 201.895,309.604 204.505,309.608 206.384 C 309.613 208.263,309.892 210.970,310.228 212.400 C 310.564 213.830,311.006 217.520,311.211 220.600 C 311.416 223.680,311.840 227.010,312.153 228.000 C 312.467 228.990,312.851 232.230,313.007 235.200 C 313.162 238.170,313.522 241.320,313.806 242.200 C 314.090 243.080,314.448 246.230,314.602 249.200 C 314.755 252.170,315.133 255.345,315.441 256.256 C 315.749 257.166,316.164 260.586,316.362 263.856 C 316.560 267.125,316.942 270.340,317.210 271.000 C 317.479 271.660,317.850 274.827,318.035 278.037 C 318.220 281.247,318.577 284.397,318.827 285.037 C 319.077 285.677,319.436 288.720,319.625 291.800 C 319.813 294.880,320.245 298.284,320.584 299.364 C 320.923 300.444,321.206 302.694,321.212 304.364 C 321.227 307.978,321.849 313.128,322.346 313.754 C 322.541 313.999,322.826 316.649,322.979 319.642 C 323.133 322.636,323.444 325.786,323.671 326.642 C 323.897 327.499,324.295 330.990,324.555 334.400 C 324.814 337.810,325.177 340.843,325.362 341.140 C 325.546 341.438,325.833 342.608,325.999 343.740 L 326.300 345.800 326.350 344.000 C 326.377 343.010,326.136 340.704,325.814 338.875 C 325.492 337.046,325.043 333.415,324.817 330.805 C 324.590 328.196,324.228 325.192,324.012 324.130 C 323.796 323.069,323.432 319.727,323.202 316.705 C 322.972 313.683,322.616 310.769,322.412 310.230 C 322.207 309.691,321.847 306.703,321.613 303.589 C 321.379 300.475,321.021 297.178,320.818 296.263 C 320.614 295.349,320.243 292.260,319.992 289.400 C 319.741 286.540,319.366 283.420,319.159 282.467 C 318.952 281.514,318.596 278.364,318.369 275.467 C 318.142 272.570,317.776 269.514,317.556 268.676 C 317.336 267.838,316.906 264.418,316.600 261.076 C 316.294 257.734,315.776 253.020,315.448 250.600 C 314.674 244.883,314.100 240.005,313.587 234.800 C 313.360 232.490,312.999 229.340,312.784 227.800 C 312.570 226.260,312.208 223.380,311.979 221.400 C 311.750 219.420,311.397 216.360,311.193 214.600 C 310.989 212.840,310.460 208.102,310.017 204.071 C 309.574 200.040,309.125 196.603,309.021 196.433 C 308.916 196.264,308.638 193.712,308.404 190.763 C 308.169 187.813,307.729 184.140,307.425 182.600 C 307.121 181.060,306.757 178.000,306.616 175.800 C 306.475 173.600,306.100 170.352,305.782 168.582 C 305.465 166.812,305.033 163.260,304.824 160.688 C 304.431 155.873,303.690 151.224,303.232 150.706 C 303.089 150.544,303.093 151.823,303.241 153.549 M350.454 259.600 C 350.424 260.590,350.650 262.750,350.956 264.400 C 351.261 266.050,351.627 269.200,351.769 271.400 C 351.910 273.600,352.283 276.750,352.597 278.400 C 352.912 280.050,353.365 283.830,353.605 286.800 C 353.845 289.770,354.207 292.920,354.409 293.800 C 354.611 294.680,354.964 297.620,355.194 300.334 C 355.424 303.048,355.786 306.046,355.999 306.998 C 356.213 307.949,356.579 311.275,356.813 314.389 C 357.047 317.503,357.409 320.497,357.616 321.042 C 357.823 321.587,358.179 324.487,358.407 327.487 C 358.634 330.487,359.069 334.395,359.372 336.171 C 359.675 337.947,360.043 340.930,360.189 342.800 C 360.336 344.670,360.701 347.730,361.000 349.600 C 361.299 351.470,361.657 354.710,361.795 356.800 C 361.933 358.890,362.298 361.950,362.607 363.600 C 362.916 365.250,363.364 369.016,363.603 371.969 C 363.842 374.922,364.124 377.477,364.229 377.646 C 364.333 377.816,364.680 380.620,364.999 383.877 C 365.318 387.135,365.767 390.880,365.998 392.200 C 366.228 393.520,366.585 395.860,366.791 397.400 C 367.130 399.937,367.148 399.783,366.979 395.761 C 366.877 393.320,366.543 390.440,366.238 389.361 C 365.933 388.283,365.579 385.125,365.452 382.345 C 365.325 379.565,364.964 376.505,364.649 375.545 C 364.334 374.585,363.952 371.370,363.798 368.400 C 363.645 365.430,363.267 362.255,362.959 361.344 C 362.651 360.434,362.236 357.014,362.038 353.744 C 361.840 350.475,361.477 347.286,361.233 346.658 C 360.988 346.031,360.628 342.881,360.433 339.658 C 360.237 336.436,359.861 333.260,359.598 332.600 C 359.334 331.940,358.972 328.838,358.793 325.706 C 358.614 322.574,358.199 319.154,357.870 318.106 C 357.541 317.058,357.171 313.950,357.048 311.200 C 356.925 308.450,356.551 305.300,356.217 304.200 C 355.882 303.100,355.600 300.670,355.588 298.800 C 355.577 296.930,355.296 294.050,354.964 292.400 C 354.631 290.750,354.121 286.520,353.829 283.000 C 353.537 279.480,353.088 276.071,352.831 275.425 C 352.574 274.779,352.204 271.587,352.009 268.331 C 351.814 265.075,351.512 262.184,351.338 261.906 C 351.163 261.628,350.905 260.590,350.764 259.600 L 350.507 257.800 350.454 259.600 M80.081 290.648 C 80.037 291.554,79.738 293.804,79.417 295.648 C 79.096 297.491,78.645 301.346,78.414 304.213 C 78.183 307.080,77.815 310.050,77.595 310.813 C 77.376 311.576,77.014 314.605,76.790 317.545 C 76.566 320.484,76.220 323.634,76.020 324.545 C 75.821 325.455,75.459 328.360,75.216 331.000 C 74.973 333.640,74.524 337.420,74.216 339.400 C 73.909 341.380,73.542 344.816,73.401 347.035 C 73.260 349.254,72.970 351.774,72.756 352.635 C 72.286 354.528,71.221 365.678,71.470 366.100 C 72.006 367.009,72.206 365.932,72.257 361.851 C 72.290 359.156,72.511 356.940,72.800 356.400 C 73.068 355.899,73.521 352.499,73.807 348.845 C 74.093 345.190,74.530 341.570,74.777 340.800 C 75.024 340.030,75.329 337.240,75.454 334.600 C 75.580 331.960,75.940 328.900,76.254 327.800 C 76.569 326.700,76.926 323.460,77.047 320.600 C 77.179 317.509,77.509 314.760,77.862 313.821 C 78.213 312.889,78.541 310.186,78.664 307.221 C 78.784 304.298,79.198 300.863,79.654 299.000 C 80.210 296.727,80.398 294.816,80.300 292.400 C 80.225 290.530,80.126 289.741,80.081 290.648 M326.570 350.421 C 326.645 353.369,326.885 355.397,327.232 356.021 C 327.603 356.688,327.780 358.499,327.788 361.698 C 327.799 365.977,327.980 367.003,328.558 366.067 C 328.867 365.567,328.056 355.648,327.549 353.719 C 327.306 352.794,326.959 350.634,326.779 348.919 C 326.473 346.003,326.459 346.101,326.570 350.421 " stroke="none" fill="#a2a2a2" fill-rule="evenodd"></path><path id="path4" d="M189.038 0.645 C 188.857 1.116,188.962 1.224,189.428 1.045 C 189.779 0.910,190.141 0.800,190.233 0.800 C 190.325 0.800,190.400 0.620,190.400 0.400 C 190.400 -0.252,189.307 -0.055,189.038 0.645 M210.092 0.475 C 210.179 0.736,210.464 1.021,210.725 1.108 C 211.018 1.206,211.107 1.023,210.957 0.633 C 210.678 -0.094,209.852 -0.245,210.092 0.475 M159.322 13.829 L 158.200 14.858 159.500 13.954 C 160.215 13.457,160.800 12.993,160.800 12.925 C 160.800 12.609,160.358 12.880,159.322 13.829 M247.000 19.600 C 247.859 20.480,248.652 21.200,248.762 21.200 C 248.872 21.200,248.259 20.480,247.400 19.600 C 246.541 18.720,245.748 18.000,245.638 18.000 C 245.528 18.000,246.141 18.720,247.000 19.600 M266.520 61.600 C 266.520 62.810,266.595 63.305,266.687 62.700 C 266.778 62.095,266.778 61.105,266.687 60.500 C 266.595 59.895,266.520 60.390,266.520 61.600 M249.709 62.400 C 249.709 63.390,249.787 63.795,249.882 63.300 C 249.978 62.805,249.978 61.995,249.882 61.500 C 249.787 61.005,249.709 61.410,249.709 62.400 M133.389 88.800 C 133.389 103.870,133.439 110.035,133.500 102.500 C 133.561 94.965,133.561 82.635,133.500 75.100 C 133.439 67.565,133.389 73.730,133.389 88.800 M150.189 89.200 C 150.189 104.050,150.239 110.125,150.300 102.700 C 150.361 95.275,150.361 83.125,150.300 75.700 C 150.239 68.275,150.189 74.350,150.189 89.200 M200.200 116.400 L 150.600 116.605 200.076 116.702 C 232.735 116.767,249.637 116.664,249.800 116.400 C 249.936 116.180,249.992 116.044,249.924 116.098 C 249.856 116.151,227.480 116.287,200.200 116.400 M267.142 116.502 C 267.309 116.669,282.195 116.759,300.222 116.702 L 333.000 116.600 299.920 116.400 C 281.726 116.290,266.976 116.336,267.142 116.502 M83.670 116.700 C 92.619 116.760,107.379 116.760,116.470 116.700 C 125.562 116.640,118.240 116.591,100.200 116.591 C 82.160 116.591,74.722 116.640,83.670 116.700 M64.893 129.600 C 64.893 130.370,64.975 130.685,65.076 130.300 C 65.176 129.915,65.176 129.285,65.076 128.900 C 64.975 128.515,64.893 128.830,64.893 129.600 M334.893 129.600 C 334.893 130.370,334.975 130.685,335.076 130.300 C 335.176 129.915,335.176 129.285,335.076 128.900 C 334.975 128.515,334.893 128.830,334.893 129.600 M63.293 143.600 C 63.293 144.370,63.375 144.685,63.476 144.300 C 63.576 143.915,63.576 143.285,63.476 142.900 C 63.375 142.515,63.293 142.830,63.293 143.600 M106.127 150.300 C 111.147 150.363,119.247 150.363,124.127 150.300 C 129.007 150.236,124.900 150.184,115.000 150.184 C 105.100 150.184,101.107 150.236,106.127 150.300 M168.400 150.295 C 215.374 150.569,249.906 150.571,249.738 150.300 C 249.636 150.135,227.288 150.043,200.076 150.096 C 172.864 150.148,158.610 150.238,168.400 150.295 M267.061 150.300 C 266.893 150.573,280.239 150.567,296.600 150.288 C 300.120 150.228,294.956 150.139,285.124 150.089 C 275.292 150.040,267.164 150.135,267.061 150.300 M62.200 152.000 C 62.048 152.691,62.007 153.341,62.109 153.442 C 62.211 153.544,62.409 153.053,62.550 152.350 C 62.883 150.683,62.560 150.360,62.200 152.000 M133.379 163.600 C 133.379 170.750,133.433 173.675,133.499 170.100 C 133.566 166.525,133.566 160.675,133.499 157.100 C 133.433 153.525,133.379 156.450,133.379 163.600 M150.178 162.800 C 150.178 169.510,150.232 172.255,150.299 168.900 C 150.366 165.545,150.366 160.055,150.299 156.700 C 150.232 153.345,150.178 156.090,150.178 162.800 M94.893 162.000 C 94.893 162.770,94.975 163.085,95.076 162.700 C 95.176 162.315,95.176 161.685,95.076 161.300 C 94.975 160.915,94.893 161.230,94.893 162.000 M304.893 162.000 C 304.893 162.770,304.975 163.085,305.076 162.700 C 305.176 162.315,305.176 161.685,305.076 161.300 C 304.975 160.915,304.893 161.230,304.893 162.000 M306.493 174.400 C 306.493 175.170,306.575 175.485,306.676 175.100 C 306.776 174.715,306.776 174.085,306.676 173.700 C 306.575 173.315,306.493 173.630,306.493 174.400 M93.293 176.000 C 93.293 176.770,93.375 177.085,93.476 176.700 C 93.576 176.315,93.576 175.685,93.476 175.300 C 93.375 174.915,93.293 175.230,93.293 176.000 M307.268 182.000 C 307.288 183.039,307.918 184.746,307.932 183.800 C 307.938 183.360,307.789 182.640,307.600 182.200 C 307.389 181.710,307.261 181.632,307.268 182.000 M141.105 183.483 C 141.602 183.579,142.322 183.575,142.705 183.475 C 143.087 183.375,142.680 183.296,141.800 183.301 C 140.920 183.305,140.607 183.387,141.105 183.483 M257.700 183.476 C 258.085 183.576,258.715 183.576,259.100 183.476 C 259.485 183.375,259.170 183.293,258.400 183.293 C 257.630 183.293,257.315 183.375,257.700 183.476 M91.693 188.400 C 91.693 189.170,91.775 189.485,91.876 189.100 C 91.976 188.715,91.976 188.085,91.876 187.700 C 91.775 187.315,91.693 187.630,91.693 188.400 M57.450 193.250 C 57.117 194.917,57.440 195.240,57.800 193.600 C 57.952 192.909,57.993 192.259,57.891 192.158 C 57.789 192.056,57.591 192.547,57.450 193.250 M343.293 200.400 C 343.293 201.170,343.375 201.485,343.476 201.100 C 343.576 200.715,343.576 200.085,343.476 199.700 C 343.375 199.315,343.293 199.630,343.293 200.400 M90.093 202.800 C 90.093 203.570,90.175 203.885,90.276 203.500 C 90.376 203.115,90.376 202.485,90.276 202.100 C 90.175 201.715,90.093 202.030,90.093 202.800 M54.901 214.600 C 54.905 215.480,54.987 215.793,55.083 215.295 C 55.179 214.798,55.175 214.078,55.075 213.695 C 54.975 213.313,54.896 213.720,54.901 214.600 M344.901 214.600 C 344.905 215.480,344.987 215.793,345.083 215.295 C 345.179 214.798,345.175 214.078,345.075 213.695 C 344.975 213.313,344.896 213.720,344.901 214.600 M311.693 220.000 C 311.693 220.770,311.775 221.085,311.876 220.700 C 311.976 220.315,311.976 219.685,311.876 219.300 C 311.775 218.915,311.693 219.230,311.693 220.000 M312.068 223.400 C 312.062 223.840,312.211 224.560,312.400 225.000 C 312.838 226.019,312.838 224.968,312.400 223.600 C 312.143 222.796,312.077 222.757,312.068 223.400 M87.400 224.800 C 87.248 225.491,87.207 226.141,87.309 226.242 C 87.411 226.344,87.609 225.853,87.750 225.150 C 88.083 223.483,87.760 223.160,87.400 224.800 M53.293 228.800 C 53.293 229.570,53.375 229.885,53.476 229.500 C 53.576 229.115,53.576 228.485,53.476 228.100 C 53.375 227.715,53.293 228.030,53.293 228.800 M313.293 232.800 C 313.293 233.570,313.375 233.885,313.476 233.500 C 313.576 233.115,313.576 232.485,313.476 232.100 C 313.375 231.715,313.293 232.030,313.293 232.800 M51.693 241.600 C 51.693 242.370,51.775 242.685,51.876 242.300 C 51.976 241.915,51.976 241.285,51.876 240.900 C 51.775 240.515,51.693 240.830,51.693 241.600 M84.893 246.800 C 84.893 247.570,84.975 247.885,85.076 247.500 C 85.176 247.115,85.176 246.485,85.076 246.100 C 84.975 245.715,84.893 246.030,84.893 246.800 M314.893 246.800 C 314.893 247.570,314.975 247.885,315.076 247.500 C 315.176 247.115,315.176 246.485,315.076 246.100 C 314.975 245.715,314.893 246.030,314.893 246.800 M50.093 255.600 C 50.093 256.370,50.175 256.685,50.276 256.300 C 50.376 255.915,50.376 255.285,50.276 254.900 C 50.175 254.515,50.093 254.830,50.093 255.600 M350.093 258.800 C 350.093 259.570,350.175 259.885,350.276 259.500 C 350.376 259.115,350.376 258.485,350.276 258.100 C 350.175 257.715,350.093 258.030,350.093 258.800 M316.493 259.600 C 316.493 260.370,316.575 260.685,316.676 260.300 C 316.776 259.915,316.776 259.285,316.676 258.900 C 316.575 258.515,316.493 258.830,316.493 259.600 M83.293 261.200 C 83.293 261.970,83.375 262.285,83.476 261.900 C 83.576 261.515,83.576 260.885,83.476 260.500 C 83.375 260.115,83.293 260.430,83.293 261.200 M317.268 267.200 C 317.288 268.239,317.918 269.946,317.932 269.000 C 317.938 268.560,317.789 267.840,317.600 267.400 C 317.389 266.910,317.261 266.832,317.268 267.200 M81.693 273.600 C 81.693 274.370,81.775 274.685,81.876 274.300 C 81.976 273.915,81.976 273.285,81.876 272.900 C 81.775 272.515,81.693 272.830,81.693 273.600 M353.293 285.600 C 353.293 286.370,353.375 286.685,353.476 286.300 C 353.576 285.915,353.576 285.285,353.476 284.900 C 353.375 284.515,353.293 284.830,353.293 285.600 M46.493 287.200 C 46.493 287.970,46.575 288.285,46.676 287.900 C 46.776 287.515,46.776 286.885,46.676 286.500 C 46.575 286.115,46.493 286.430,46.493 287.200 M80.093 288.000 C 80.093 288.770,80.175 289.085,80.276 288.700 C 80.376 288.315,80.376 287.685,80.276 287.300 C 80.175 286.915,80.093 287.230,80.093 288.000 M44.901 299.800 C 44.905 300.680,44.987 300.993,45.083 300.495 C 45.179 299.998,45.175 299.278,45.075 298.895 C 44.975 298.513,44.896 298.920,44.901 299.800 M354.901 299.800 C 354.905 300.680,354.987 300.993,355.083 300.495 C 355.179 299.998,355.175 299.278,355.075 298.895 C 354.975 298.513,354.896 298.920,354.901 299.800 M321.693 305.200 C 321.693 305.970,321.775 306.285,321.876 305.900 C 321.976 305.515,321.976 304.885,321.876 304.500 C 321.775 304.115,321.693 304.430,321.693 305.200 M322.068 308.600 C 322.062 309.040,322.211 309.760,322.400 310.200 C 322.838 311.219,322.838 310.168,322.400 308.800 C 322.143 307.996,322.077 307.957,322.068 308.600 M77.400 310.000 C 77.248 310.691,77.207 311.341,77.309 311.442 C 77.411 311.544,77.609 311.053,77.750 310.350 C 78.083 308.683,77.760 308.360,77.400 310.000 M356.493 312.400 C 356.493 313.170,356.575 313.485,356.676 313.100 C 356.776 312.715,356.776 312.085,356.676 311.700 C 356.575 311.315,356.493 311.630,356.493 312.400 M43.293 314.000 C 43.293 314.770,43.375 315.085,43.476 314.700 C 43.576 314.315,43.576 313.685,43.476 313.300 C 43.375 312.915,43.293 313.230,43.293 314.000 M323.293 318.000 C 323.293 318.770,323.375 319.085,323.476 318.700 C 323.576 318.315,323.576 317.685,323.476 317.300 C 323.375 316.915,323.293 317.230,323.293 318.000 M357.268 320.800 C 357.288 321.839,357.918 323.546,357.932 322.600 C 357.938 322.160,357.789 321.440,357.600 321.000 C 357.389 320.510,357.261 320.432,357.268 320.800 M74.893 332.000 C 74.893 332.770,74.975 333.085,75.076 332.700 C 75.176 332.315,75.176 331.685,75.076 331.300 C 74.975 330.915,74.893 331.230,74.893 332.000 M324.893 332.000 C 324.893 332.770,324.975 333.085,325.076 332.700 C 325.176 332.315,325.176 331.685,325.076 331.300 C 324.975 330.915,324.893 331.230,324.893 332.000 M40.093 340.800 C 40.093 341.570,40.175 341.885,40.276 341.500 C 40.376 341.115,40.376 340.485,40.276 340.100 C 40.175 339.715,40.093 340.030,40.093 340.800 M360.093 344.000 C 360.093 344.770,360.175 345.085,360.276 344.700 C 360.376 344.315,360.376 343.685,360.276 343.300 C 360.175 342.915,360.093 343.230,360.093 344.000 M326.493 344.800 C 326.493 345.570,326.575 345.885,326.676 345.500 C 326.776 345.115,326.776 344.485,326.676 344.100 C 326.575 343.715,326.493 344.030,326.493 344.800 M73.301 346.200 C 73.305 347.080,73.387 347.393,73.483 346.895 C 73.579 346.398,73.575 345.678,73.475 345.295 C 73.375 344.913,73.296 345.320,73.301 346.200 M327.268 352.200 C 327.262 352.640,327.411 353.360,327.600 353.800 C 328.038 354.819,328.038 353.768,327.600 352.400 C 327.343 351.596,327.277 351.557,327.268 352.200 M361.693 358.000 C 361.693 358.770,361.775 359.085,361.876 358.700 C 361.976 358.315,361.976 357.685,361.876 357.300 C 361.775 356.915,361.693 357.230,361.693 358.000 M71.693 358.800 C 71.693 359.570,71.775 359.885,71.876 359.500 C 71.976 359.115,71.976 358.485,71.876 358.100 C 71.775 357.715,71.693 358.030,71.693 358.800 M135.900 366.700 C 171.155 366.756,228.845 366.756,264.100 366.700 C 299.355 366.644,270.510 366.598,200.000 366.598 C 129.490 366.598,100.645 366.644,135.900 366.700 M363.293 370.800 C 363.293 371.570,363.375 371.885,363.476 371.500 C 363.576 371.115,363.576 370.485,363.476 370.100 C 363.375 369.715,363.293 370.030,363.293 370.800 M36.493 372.400 C 36.493 373.170,36.575 373.485,36.676 373.100 C 36.776 372.715,36.776 372.085,36.676 371.700 C 36.575 371.315,36.493 371.630,36.493 372.400 M34.893 384.800 C 34.893 385.570,34.975 385.885,35.076 385.500 C 35.176 385.115,35.176 384.485,35.076 384.100 C 34.975 383.715,34.893 384.030,34.893 384.800 M364.893 384.800 C 364.893 385.570,364.975 385.885,365.076 385.500 C 365.176 385.115,365.176 384.485,365.076 384.100 C 364.975 383.715,364.893 384.030,364.893 384.800 M366.493 397.600 C 366.493 398.370,366.575 398.685,366.676 398.300 C 366.776 397.915,366.776 397.285,366.676 396.900 C 366.575 396.515,366.493 396.830,366.493 397.600 " stroke="none" fill="#848484" fill-rule="evenodd"></path></g></svg>